<svg width="152" height="30" viewBox="0 0 152 30" fill="none" xmlns="http://www.w3.org/2000/svg">
<path d="M114.493 21.9089C114.358 21.9089 114.092 21.8992 113.695 21.8798C113.298 21.8604 112.833 21.841 112.3 21.8215C111.768 21.8021 111.226 21.7876 110.674 21.7778C110.122 21.7681 109.623 21.7633 109.178 21.7633C108.732 21.7633 108.225 21.7681 107.654 21.7778L105.954 21.807C105.392 21.8167 104.908 21.8313 104.501 21.8507C104.095 21.8701 103.843 21.8798 103.746 21.8798C103.623 21.8484 103.509 21.7885 103.413 21.705C103.248 21.5882 103.165 21.4814 103.165 21.3846C103.159 21.3237 103.167 21.2624 103.187 21.2047C103.207 21.147 103.239 21.0943 103.281 21.0503C103.359 20.9823 103.436 20.9095 103.514 20.8318L107.987 15.9366C108.925 14.941 109.704 13.806 110.296 12.5718C110.847 11.4016 111.13 10.1226 111.124 8.82857C111.156 8.03127 110.898 7.24941 110.398 6.62908C110.169 6.35092 109.88 6.12885 109.553 5.97986C109.226 5.83087 108.869 5.75889 108.51 5.76944C107.792 5.76994 107.089 5.98273 106.491 6.38122C105.892 6.76061 105.366 7.244 104.937 7.8087C104.831 7.9345 104.714 8.0512 104.588 8.15757C104.46 8.2713 104.295 8.33355 104.124 8.33236C104.061 8.32881 104.001 8.30785 103.95 8.27183C103.898 8.2358 103.858 8.18615 103.833 8.12844C103.75 7.96645 103.709 7.78537 103.717 7.6031C103.763 7.1924 103.924 6.8032 104.182 6.48079C104.549 5.96399 104.983 5.49939 105.475 5.09964C106.054 4.61645 106.7 4.21911 107.392 3.91978C108.129 3.59703 108.926 3.43326 109.73 3.4391C110.617 3.41248 111.494 3.63984 112.257 4.09458C112.941 4.51708 113.495 5.12233 113.855 5.84251C114.232 6.60745 114.421 7.45131 114.407 8.30419C114.395 8.89673 114.282 9.48284 114.074 10.0376C113.848 10.6756 113.561 11.2903 113.217 11.8729C112.899 12.4198 112.54 12.9409 112.141 13.4315C111.851 13.7616 111.478 14.1549 111.022 14.6113C110.567 15.0677 110.087 15.5432 109.585 16.0376C109.081 16.5329 108.607 16.999 108.161 17.436C107.716 17.8729 107.353 18.2322 107.072 18.5138C106.909 18.6524 106.767 18.8144 106.651 18.9945C106.651 19.0722 106.796 19.1305 107.086 19.1693C107.436 19.2082 107.842 19.2373 108.306 19.2567C108.771 19.2761 109.226 19.2858 109.672 19.2858C110.156 19.2858 110.635 19.2761 111.109 19.2567C111.584 19.2373 112.044 19.2082 112.489 19.1693C112.893 19.1456 113.293 19.0722 113.68 18.9508C113.987 18.8455 114.269 18.6768 114.508 18.4556C114.779 18.1918 115 17.8809 115.161 17.5379C115.235 17.3791 115.339 17.2358 115.466 17.1155C115.527 17.0483 115.601 16.9944 115.684 16.9568C115.766 16.9193 115.855 16.899 115.946 16.8972C116.001 16.8905 116.057 16.9026 116.105 16.9317C116.152 16.9607 116.188 17.0051 116.208 17.0575C116.246 17.1644 116.256 17.2797 116.237 17.3918C116.121 17.7608 115.98 18.1929 115.816 18.6882C115.651 19.1834 115.501 19.6598 115.365 20.1173C115.25 20.4843 115.162 20.8595 115.103 21.2396C115.101 21.3404 115.075 21.4392 115.027 21.5278C114.979 21.6164 114.911 21.6922 114.828 21.7487C114.729 21.8262 114.615 21.8809 114.493 21.9089ZM122.83 21.8798C122.693 21.8747 122.56 21.8399 122.438 21.7778C122.375 21.7555 122.32 21.7142 122.281 21.6595C122.242 21.6047 122.221 21.5392 122.22 21.472C122.217 21.4004 122.235 21.3295 122.271 21.2676C122.307 21.2057 122.36 21.1553 122.423 21.1224C122.551 21.0479 122.688 20.9892 122.83 20.9476C123.643 20.8116 124.19 20.6223 124.471 20.3795C124.752 20.1367 124.892 19.7434 124.892 19.1996V17.1895C124.89 17.1392 124.872 17.0909 124.841 17.0516C124.81 17.0123 124.766 16.9841 124.718 16.971C124.626 16.928 124.528 16.9029 124.427 16.8972C123.768 16.8972 123.066 16.9167 122.321 16.9555C121.575 16.9944 120.805 17.0283 120.011 17.0575C119.218 17.0866 118.414 17.1105 117.6 17.1291C117.506 17.13 117.414 17.0993 117.338 17.0417C117.307 17.0236 117.28 16.9984 117.26 16.9681C117.24 16.9377 117.227 16.9031 117.222 16.8669C117.231 16.7831 117.261 16.7029 117.309 16.6339C117.484 16.4008 117.62 16.2257 117.716 16.1085C117.813 15.9914 117.905 15.8799 117.992 15.7742C118.093 15.6499 118.185 15.5193 118.27 15.3833L125.618 4.0504C125.763 3.80584 125.945 3.58482 126.156 3.39493C126.319 3.21874 126.542 3.10971 126.78 3.08904H127.129C127.284 3.08904 127.356 3.16187 127.347 3.30753C127.35 3.41829 127.314 3.52654 127.245 3.61342L120.1 14.655C120.073 14.6897 120.055 14.7303 120.047 14.7735C120.04 14.8166 120.043 14.8609 120.056 14.9026C120.073 14.9374 120.1 14.966 120.134 14.9843C120.168 15.0026 120.207 15.0097 120.245 15.0046H124.631C124.696 15.0019 124.758 14.9761 124.805 14.9318C124.863 14.8832 124.892 14.8395 124.892 14.8007V10.9562C124.88 10.7496 124.905 10.5426 124.964 10.3444C125.034 10.2081 125.153 10.1039 125.297 10.0531C125.751 9.8369 126.236 9.69432 126.735 9.63066C127.086 9.57723 127.44 9.54319 127.795 9.5287C127.869 9.52414 127.943 9.53463 128.013 9.55952C128.083 9.58442 128.147 9.62321 128.202 9.67356C128.256 9.72392 128.3 9.7848 128.33 9.85256C128.361 9.92032 128.377 9.99356 128.379 10.0679C128.447 10.5845 128.476 11.1055 128.466 11.6265V14.9463C128.466 15.0629 128.514 15.1211 128.611 15.1211C128.844 15.1406 129.037 15.1503 129.192 15.1503H129.686C129.977 15.1503 130.248 15.1454 130.499 15.1357C130.751 15.126 131.042 15.1114 131.371 15.092C131.603 15.092 131.719 15.1697 131.719 15.3251C131.708 15.5346 131.664 15.7411 131.589 15.9368C131.509 16.17 131.417 16.3985 131.313 16.6214C131.216 16.8254 131.138 16.9273 131.08 16.9273C130.848 16.9273 130.616 16.9225 130.383 16.9128C130.151 16.9031 129.918 16.8982 129.686 16.8982C129.492 16.8982 129.342 16.9031 129.236 16.9128C129.129 16.9225 129.008 16.937 128.873 16.9565C128.788 16.9784 128.705 17.0077 128.626 17.0439C128.539 17.0827 128.495 17.1118 128.495 17.1313V19.1132C128.495 19.6764 128.621 20.0697 128.873 20.2931C129.124 20.5164 129.628 20.7349 130.383 20.9485C130.534 21.0047 130.679 21.0729 130.819 21.1525C130.879 21.1812 130.931 21.2265 130.967 21.2832C131.003 21.34 131.022 21.4057 131.022 21.4729C131.023 21.5292 131.008 21.5846 130.98 21.6333C130.952 21.682 130.911 21.7222 130.862 21.7497C130.744 21.8208 130.608 21.8562 130.47 21.8516C130.006 21.8516 129.555 21.8419 129.12 21.8225C128.684 21.8031 128.262 21.7833 127.855 21.7633C127.448 21.7439 127.042 21.7341 126.635 21.7341C126.19 21.7341 125.769 21.7439 125.372 21.7633C124.975 21.7827 124.568 21.807 124.152 21.8361C123.735 21.8652 123.295 21.8798 122.83 21.8798ZM132.619 21.8798C132.212 21.8798 132.009 21.7536 132.009 21.5011C132.005 21.433 132.02 21.3651 132.054 21.3058C132.087 21.2464 132.137 21.1981 132.198 21.1668C132.353 21.0852 132.513 21.0122 132.677 20.9483C132.952 20.8581 133.219 20.7463 133.476 20.614C133.718 20.4878 133.839 20.2207 133.839 19.8129V5.62402C133.86 5.13592 133.776 4.649 133.592 4.19654C133.496 4.01376 133.358 3.85716 133.188 3.74038C133.019 3.62359 132.823 3.55017 132.619 3.5265C132.425 3.48765 132.328 3.34199 132.328 3.08952C132.328 2.85646 132.416 2.72051 132.59 2.68166C133.103 2.58211 133.608 2.44581 134.101 2.27381C134.604 2.0987 135.079 1.92359 135.524 1.74848C135.969 1.57336 136.337 1.43741 136.628 1.34062C136.739 1.29275 136.856 1.26324 136.976 1.25323C137.015 1.24912 137.054 1.25499 137.089 1.27029C137.125 1.2856 137.156 1.30981 137.18 1.34062C137.222 1.41085 137.242 1.49195 137.238 1.57368C137.226 1.88098 137.197 2.18735 137.151 2.49135C137.083 3.05711 137.045 3.62591 137.034 4.19558L137.064 14.6545C137.064 14.8682 137.131 14.975 137.267 14.975C137.373 14.9671 137.477 14.9374 137.572 14.8876C137.707 14.8223 137.83 14.7333 137.935 14.6249C138.613 14.04 139.258 13.4175 139.867 12.7605C140.262 12.3437 140.636 11.9061 140.986 11.4495C141.064 11.3601 141.132 11.2624 141.189 11.1582C141.224 11.0956 141.243 11.0258 141.247 10.9543C141.247 10.8572 141.17 10.7649 141.015 10.6775C140.815 10.5763 140.598 10.5121 140.376 10.4881C140.143 10.4299 140.027 10.3134 140.027 10.1386C140.025 10.0746 140.044 10.0118 140.081 9.95935C140.118 9.90693 140.17 9.86763 140.23 9.84724C140.368 9.78856 140.516 9.75881 140.666 9.75984H142.089C142.419 9.75984 142.83 9.74042 143.324 9.70158C143.818 9.66274 144.292 9.61904 144.747 9.57048C145.202 9.52273 145.546 9.48874 145.778 9.46852C146.011 9.46852 146.127 9.57534 146.127 9.78898C146.126 9.85819 146.108 9.92612 146.075 9.98698C146.042 10.0478 145.995 10.0998 145.938 10.1386C145.785 10.2483 145.613 10.3275 145.43 10.3716C145.044 10.4622 144.669 10.5941 144.311 10.7649C143.914 10.9494 143.512 11.1582 143.105 11.3912C142.771 11.5818 142.451 11.796 142.147 12.0322C141.759 12.3235 141.358 12.6391 140.941 12.979C140.525 13.3188 140.142 13.6539 139.793 13.984C139.751 14.0204 139.716 14.0649 139.692 14.115C139.667 14.165 139.652 14.2195 139.648 14.2753C139.646 14.3274 139.662 14.3786 139.692 14.421C139.721 14.4598 139.755 14.5084 139.793 14.5667C140.278 15.1687 140.757 15.7708 141.231 16.3729C141.706 16.9749 142.166 17.5382 142.611 18.0625C143.056 18.5869 143.453 19.053 143.801 19.4609C144.157 19.8115 144.552 20.1195 144.978 20.3785C145.329 20.6083 145.704 20.7988 146.097 20.9466C146.291 21.0243 146.479 21.0971 146.663 21.1651C146.74 21.1821 146.809 21.2242 146.859 21.2847C146.909 21.3453 146.937 21.4208 146.939 21.4994C146.939 21.7519 146.736 21.8781 146.329 21.8781C145.284 21.8781 144.233 21.8636 143.178 21.8344C142.122 21.8053 141.11 21.7913 140.142 21.7924C139.774 21.7924 139.59 21.6759 139.59 21.4428C139.589 21.3785 139.603 21.3148 139.631 21.2567C139.658 21.1987 139.699 21.148 139.75 21.1085C139.876 21.0108 140.019 20.9368 140.171 20.89C140.32 20.8457 140.458 20.7713 140.578 20.6715C140.67 20.593 140.731 20.4848 140.752 20.3657C140.748 20.2763 140.718 20.1901 140.665 20.118C140.607 20.0306 140.529 19.9192 140.433 19.7837L137.412 15.8786C137.334 15.7815 137.266 15.7329 137.208 15.7329C137.111 15.7523 137.063 15.83 137.063 15.966C137.044 16.2379 137.034 16.5292 137.034 16.8399V18.7918C137.034 19.142 137.044 19.4819 137.063 19.8114C137.038 20.0848 137.121 20.357 137.295 20.5689C137.486 20.745 137.715 20.8746 137.964 20.9476C138.112 21.003 138.257 21.0662 138.399 21.1369C138.463 21.1657 138.516 21.213 138.552 21.2727C138.589 21.3323 138.606 21.4015 138.603 21.4712C138.603 21.5368 138.584 21.601 138.548 21.6556C138.512 21.7102 138.46 21.7525 138.399 21.7771C138.283 21.8403 138.154 21.8755 138.022 21.8798C137.702 21.8821 137.382 21.8675 137.063 21.8361C136.792 21.807 136.531 21.7827 136.279 21.7633C136.027 21.7439 135.727 21.7341 135.379 21.7341C135.05 21.7341 134.749 21.7439 134.478 21.7633C134.207 21.7827 133.926 21.807 133.636 21.8361C133.345 21.8652 133.006 21.8798 132.619 21.8798Z" fill="url(#paint0_linear_74_5171)"/>
<path d="M102.85 29.9981C102.575 29.999 102.303 29.9495 102.046 29.8522C101.795 29.7584 101.565 29.6172 101.367 29.4362C101.17 29.2552 101.012 29.0358 100.903 28.7915C100.787 28.5284 100.729 28.2433 100.733 27.9557C100.732 27.6796 100.779 27.4054 100.872 27.1455C100.963 26.8894 101.104 26.654 101.287 26.453C101.477 26.2453 101.709 26.0803 101.968 25.9687C102.264 25.8435 102.584 25.7822 102.906 25.7887C103.179 25.7875 103.451 25.8369 103.707 25.9346C103.957 26.0295 104.187 26.1706 104.385 26.3506C104.583 26.5309 104.743 26.7504 104.852 26.9953C104.969 27.2583 105.027 27.5434 105.023 27.8311C105.023 28.1061 104.976 28.3792 104.883 28.6382C104.793 28.8953 104.652 29.1317 104.469 29.3335C104.278 29.5413 104.046 29.7064 103.788 29.818C103.491 29.9432 103.172 30.0046 102.85 29.9981ZM102.955 29.7249C103.189 29.7331 103.418 29.6632 103.608 29.5262C103.791 29.3834 103.929 29.1903 104.004 28.9706C104.097 28.7065 104.143 28.4279 104.137 28.1479C104.138 27.8892 104.111 27.6311 104.057 27.3781C104.009 27.1439 103.925 26.9184 103.809 26.7095C103.707 26.5234 103.564 26.3631 103.391 26.2407C103.215 26.122 103.006 26.0613 102.794 26.0669C102.56 26.0587 102.331 26.1286 102.141 26.2656C101.959 26.4072 101.822 26.5993 101.748 26.8181C101.656 27.0818 101.612 27.3597 101.617 27.6388C101.617 27.8976 101.644 28.1557 101.698 28.4087C101.747 28.6429 101.829 28.8688 101.943 29.0792C102.043 29.2668 102.185 29.4284 102.358 29.551C102.534 29.6697 102.743 29.7305 102.955 29.7249ZM105.493 29.9298C105.463 29.9305 105.433 29.923 105.406 29.908C105.395 29.9027 105.386 29.8943 105.379 29.8839C105.373 29.8735 105.369 29.8614 105.369 29.8491C105.369 29.8341 105.372 29.8193 105.379 29.8062C105.386 29.793 105.397 29.7821 105.41 29.7746C105.442 29.7557 105.476 29.7411 105.512 29.7311C105.571 29.7156 105.628 29.6926 105.682 29.6628C105.709 29.6449 105.731 29.6198 105.744 29.5903C105.758 29.5608 105.763 29.528 105.759 29.4956V28.1045C105.761 28.0209 105.748 27.9377 105.719 27.8592C105.704 27.8243 105.681 27.7938 105.651 27.7704C105.621 27.7471 105.586 27.7317 105.549 27.7257C105.532 27.7171 105.517 27.705 105.506 27.6904C105.491 27.6694 105.485 27.6441 105.487 27.6188C105.487 27.565 105.506 27.5339 105.543 27.5256C105.689 27.4919 105.833 27.4473 105.973 27.3922C106.102 27.3426 106.227 27.2835 106.347 27.2152C106.365 27.2064 106.381 27.196 106.397 27.1842C106.411 27.1727 106.428 27.1661 106.446 27.1655C106.455 27.1645 106.463 27.166 106.47 27.1699C106.477 27.1738 106.483 27.1799 106.487 27.1873C106.493 27.2024 106.496 27.2186 106.496 27.235C106.494 27.2891 106.489 27.343 106.48 27.3965C106.471 27.4643 106.466 27.5328 106.465 27.6013C106.465 27.619 106.466 27.6366 106.468 27.6541C106.468 27.6661 106.471 27.6779 106.477 27.6883C106.607 27.5636 106.754 27.459 106.914 27.3778C107.073 27.3014 107.248 27.2631 107.425 27.2661C107.525 27.2646 107.625 27.2855 107.716 27.3274C107.808 27.3693 107.889 27.431 107.954 27.5082C108.103 27.6869 108.179 27.9151 108.168 28.1477V29.5011C108.163 29.5324 108.168 29.5643 108.181 29.5929C108.194 29.6216 108.216 29.6458 108.242 29.6626C108.296 29.6892 108.352 29.712 108.409 29.7309C108.442 29.743 108.473 29.7586 108.502 29.7774C108.515 29.7853 108.526 29.7967 108.534 29.8103C108.542 29.8239 108.546 29.8394 108.545 29.855C108.545 29.8674 108.541 29.8795 108.534 29.8896C108.527 29.8996 108.516 29.9072 108.505 29.9111C108.48 29.923 108.454 29.9293 108.427 29.9298C108.344 29.9298 108.272 29.9267 108.21 29.9205C108.148 29.9142 108.087 29.9091 108.028 29.9049C107.968 29.9008 107.901 29.8987 107.826 29.8987C107.756 29.8987 107.69 29.9008 107.628 29.9049C107.566 29.9091 107.503 29.9142 107.44 29.9205C107.376 29.9267 107.303 29.9298 107.22 29.9298C107.196 29.9289 107.173 29.9225 107.152 29.9111C107.141 29.9066 107.132 29.8989 107.125 29.8889C107.118 29.879 107.115 29.8672 107.115 29.8553C107.114 29.8403 107.117 29.8253 107.124 29.8118C107.13 29.7983 107.14 29.7865 107.152 29.7777C107.179 29.7581 107.208 29.7424 107.239 29.7311C107.295 29.7127 107.35 29.6899 107.403 29.6628C107.429 29.6454 107.45 29.6211 107.462 29.5925C107.475 29.5639 107.479 29.5323 107.475 29.5014V28.2411C107.483 28.1004 107.44 27.9615 107.354 27.8499C107.314 27.8028 107.264 27.7655 107.208 27.7406C107.151 27.7158 107.09 27.7042 107.029 27.7066C106.93 27.7045 106.831 27.7214 106.738 27.7563C106.651 27.7921 106.57 27.8404 106.496 27.8996C106.479 27.9131 106.466 27.9315 106.459 27.9524C106.451 27.9753 106.447 27.9996 106.447 28.024V29.5016C106.443 29.533 106.447 29.5649 106.46 29.5939C106.472 29.623 106.493 29.6479 106.518 29.6661C106.57 29.6948 106.625 29.7167 106.682 29.7313C106.769 29.7603 106.812 29.7996 106.812 29.8493C106.813 29.861 106.81 29.8725 106.805 29.8828C106.799 29.8932 106.791 29.9019 106.781 29.9083C106.758 29.9237 106.729 29.9313 106.701 29.93C106.618 29.93 106.546 29.9269 106.484 29.9207C106.422 29.9145 106.363 29.9093 106.305 29.9052C106.247 29.901 106.181 29.899 106.107 29.899C106.037 29.899 105.97 29.901 105.909 29.9052C105.847 29.9093 105.783 29.9145 105.717 29.9207C105.651 29.9267 105.576 29.9298 105.493 29.9298ZM108.885 29.9298C108.855 29.9305 108.826 29.9241 108.799 29.9111C108.788 29.9066 108.778 29.8989 108.772 29.8889C108.765 29.879 108.762 29.8672 108.762 29.8553C108.761 29.8403 108.764 29.8255 108.771 29.8124C108.778 29.7992 108.789 29.7883 108.802 29.7808C108.834 29.7614 108.868 29.7448 108.903 29.7311C108.961 29.7119 109.018 29.6891 109.073 29.6628C109.125 29.638 109.151 29.5822 109.151 29.4956V26.4654C109.153 26.3645 109.136 26.2642 109.098 26.1705C109.079 26.1296 109.05 26.0941 109.014 26.0675C108.978 26.0409 108.935 26.024 108.891 26.0184C108.849 26.0101 108.829 25.9791 108.829 25.9253C108.829 25.8756 108.847 25.8466 108.884 25.8384C108.993 25.8163 109.099 25.7873 109.203 25.7514C109.313 25.7142 109.416 25.6769 109.513 25.6397C109.61 25.6024 109.691 25.5735 109.757 25.5528C109.777 25.543 109.798 25.5367 109.819 25.5341C109.828 25.5333 109.836 25.5349 109.844 25.5388C109.852 25.5426 109.858 25.5485 109.863 25.5559C109.87 25.568 109.874 25.5819 109.875 25.5962C109.872 25.6596 109.866 25.7228 109.856 25.7856C109.843 25.9106 109.837 26.0364 109.839 26.1622V29.489C109.839 29.5759 109.864 29.6316 109.913 29.6561C109.967 29.6828 110.023 29.7056 110.08 29.7244C110.115 29.7381 110.149 29.7547 110.182 29.7741C110.195 29.7816 110.205 29.7925 110.212 29.8057C110.219 29.8188 110.223 29.8337 110.222 29.8486C110.222 29.8606 110.219 29.8723 110.212 29.8823C110.205 29.8922 110.196 29.9 110.185 29.9045C110.158 29.9174 110.128 29.9238 110.098 29.9231C110.02 29.9231 109.948 29.92 109.882 29.9138C109.816 29.9076 109.751 29.9034 109.687 29.9014C109.623 29.8993 109.554 29.8982 109.479 29.8982C109.409 29.8982 109.344 29.9003 109.284 29.9045C109.224 29.9086 109.164 29.9138 109.102 29.92C109.04 29.9265 108.968 29.9298 108.885 29.9298ZM110.576 29.9298C110.547 29.9311 110.519 29.9235 110.495 29.908C110.486 29.9017 110.478 29.8929 110.472 29.8826C110.467 29.8723 110.464 29.8607 110.464 29.8491C110.464 29.8345 110.467 29.8199 110.473 29.8068C110.48 29.7938 110.489 29.7826 110.502 29.7746C110.528 29.7572 110.557 29.7446 110.588 29.7373C110.664 29.722 110.736 29.6947 110.803 29.6566C110.825 29.6395 110.843 29.6167 110.855 29.5906C110.866 29.5645 110.87 29.5359 110.868 29.5076V28.1603C110.874 28.0572 110.853 27.9542 110.806 27.8623C110.782 27.8272 110.75 27.7979 110.713 27.7764C110.677 27.755 110.636 27.7419 110.594 27.7382C110.583 27.7362 110.574 27.7321 110.565 27.7262C110.557 27.7204 110.549 27.7128 110.544 27.704C110.531 27.6847 110.525 27.6619 110.525 27.6388C110.525 27.5809 110.548 27.5498 110.594 27.5457C110.772 27.5108 110.946 27.4534 111.11 27.375C111.257 27.3025 111.369 27.2456 111.448 27.2042C111.482 27.1837 111.52 27.169 111.559 27.1608C111.605 27.1608 111.627 27.1815 111.627 27.2229C111.623 27.2808 111.615 27.3604 111.603 27.4616C111.592 27.5629 111.58 27.671 111.57 27.7859C111.559 27.8997 111.554 28.0063 111.554 28.1057V29.5026C111.553 29.5303 111.558 29.5579 111.57 29.5829C111.582 29.6079 111.6 29.6296 111.622 29.6458C111.689 29.6884 111.762 29.7199 111.839 29.739C111.869 29.75 111.898 29.7635 111.926 29.7793C111.938 29.7866 111.948 29.7971 111.954 29.8098C111.961 29.8225 111.964 29.8367 111.963 29.851C111.963 29.9006 111.928 29.9255 111.858 29.9255C111.779 29.9255 111.704 29.9234 111.632 29.9193L111.421 29.9068C111.353 29.9027 111.282 29.9006 111.207 29.9006C111.137 29.9006 111.069 29.9027 111.003 29.9068C110.937 29.911 110.869 29.9162 110.801 29.9224C110.733 29.9273 110.658 29.9298 110.575 29.9298H110.576ZM111.195 26.8016C111.139 26.8028 111.083 26.7924 111.03 26.7711C110.978 26.7497 110.931 26.7178 110.892 26.6775C110.852 26.6389 110.82 26.5926 110.799 26.5413C110.778 26.4901 110.767 26.435 110.768 26.3795C110.766 26.321 110.776 26.2628 110.797 26.2083C110.818 26.1539 110.851 26.1044 110.892 26.0628C110.931 26.0224 110.978 25.9906 111.03 25.9692C111.083 25.9479 111.139 25.9375 111.195 25.9386C111.252 25.9371 111.309 25.9473 111.362 25.9686C111.416 25.99 111.464 26.022 111.504 26.0628C111.545 26.1044 111.578 26.1539 111.599 26.2083C111.62 26.2628 111.63 26.321 111.628 26.3795C111.629 26.435 111.618 26.4901 111.597 26.5413C111.576 26.5926 111.544 26.6389 111.504 26.6775C111.464 26.7181 111.415 26.7501 111.362 26.7712C111.309 26.7924 111.252 26.8025 111.194 26.8007L111.195 26.8016ZM112.315 29.9298C112.285 29.9305 112.255 29.923 112.228 29.908C112.217 29.9027 112.208 29.8943 112.201 29.8839C112.195 29.8735 112.191 29.8614 112.191 29.8491C112.19 29.8341 112.194 29.8193 112.201 29.8062C112.208 29.793 112.218 29.7821 112.231 29.7746C112.263 29.7557 112.298 29.7411 112.333 29.7311C112.393 29.7156 112.45 29.6926 112.504 29.6628C112.531 29.6449 112.552 29.6198 112.566 29.5903C112.58 29.5608 112.585 29.528 112.581 29.4956V28.1045C112.583 28.0209 112.569 27.9377 112.541 27.8592C112.526 27.8243 112.503 27.7938 112.473 27.7704C112.443 27.7471 112.408 27.7317 112.371 27.7257C112.354 27.7174 112.339 27.7058 112.327 27.6916C112.313 27.6706 112.306 27.6453 112.309 27.62C112.309 27.5662 112.327 27.5351 112.364 27.5268C112.511 27.4931 112.655 27.4485 112.795 27.3934C112.924 27.3438 113.049 27.2847 113.169 27.2164C113.187 27.2076 113.203 27.1972 113.219 27.1854C113.233 27.1739 113.25 27.1673 113.268 27.1667C113.276 27.1657 113.285 27.1672 113.292 27.1711C113.299 27.175 113.305 27.1811 113.308 27.1885C113.315 27.2036 113.318 27.2198 113.318 27.2362C113.315 27.2903 113.31 27.3442 113.302 27.3977C113.293 27.4655 113.288 27.534 113.287 27.6025C113.287 27.6202 113.288 27.6378 113.29 27.6553C113.29 27.6673 113.293 27.6791 113.299 27.6895C113.428 27.5648 113.576 27.4602 113.736 27.379C113.895 27.3026 114.07 27.2643 114.246 27.2673C114.347 27.2658 114.447 27.2867 114.538 27.3286C114.63 27.3704 114.711 27.4322 114.776 27.5094C114.924 27.6881 115.001 27.9163 114.99 28.1489V29.5023C114.985 29.5336 114.99 29.5655 115.003 29.5941C115.016 29.6228 115.037 29.647 115.064 29.6638C115.118 29.6904 115.174 29.7132 115.231 29.732C115.263 29.7442 115.294 29.7598 115.324 29.7786C115.337 29.7865 115.348 29.7978 115.356 29.8115C115.363 29.8251 115.367 29.8406 115.367 29.8562C115.367 29.8684 115.363 29.8802 115.355 29.8901C115.348 29.8999 115.338 29.9072 115.327 29.9111C115.302 29.9229 115.276 29.9293 115.249 29.9298C115.167 29.9298 115.094 29.9267 115.032 29.9205C114.971 29.9142 114.91 29.9091 114.85 29.9049C114.79 29.9008 114.723 29.8987 114.649 29.8987C114.579 29.8987 114.512 29.9008 114.451 29.9049C114.389 29.9091 114.326 29.9142 114.262 29.9205C114.198 29.9267 114.125 29.9298 114.042 29.9298C114.018 29.9289 113.995 29.9225 113.974 29.9111C113.963 29.9066 113.954 29.8989 113.947 29.8889C113.941 29.879 113.937 29.8672 113.937 29.8553C113.937 29.8403 113.94 29.8253 113.946 29.8118C113.953 29.7983 113.962 29.7865 113.974 29.7777C114.001 29.7581 114.03 29.7424 114.061 29.7311C114.117 29.7127 114.172 29.6899 114.225 29.6628C114.251 29.6454 114.272 29.6211 114.284 29.5925C114.297 29.5639 114.301 29.5323 114.297 29.5014V28.2411C114.305 28.1004 114.262 27.9615 114.176 27.8499C114.136 27.8028 114.086 27.7655 114.03 27.7406C113.974 27.7158 113.912 27.7042 113.851 27.7066C113.752 27.7045 113.653 27.7214 113.56 27.7563C113.473 27.7921 113.392 27.8404 113.318 27.8996C113.301 27.9131 113.288 27.9315 113.281 27.9524C113.273 27.9753 113.269 27.9996 113.269 28.024V29.5016C113.265 29.533 113.269 29.5649 113.282 29.5939C113.294 29.623 113.315 29.6479 113.34 29.6661C113.392 29.6948 113.447 29.7167 113.504 29.7313C113.591 29.7603 113.634 29.7996 113.634 29.8493C113.635 29.861 113.632 29.8725 113.627 29.8828C113.621 29.8932 113.613 29.9019 113.603 29.9083C113.579 29.9238 113.551 29.9313 113.522 29.9298C113.439 29.9298 113.367 29.9267 113.305 29.9205C113.243 29.9142 113.184 29.9091 113.126 29.9049C113.068 29.9008 113.002 29.8987 112.928 29.8987C112.858 29.8987 112.792 29.9008 112.73 29.9049C112.668 29.9091 112.604 29.9142 112.538 29.9205C112.472 29.9267 112.397 29.9298 112.315 29.9298ZM116.791 29.9981C116.578 30.0021 116.369 29.9415 116.191 29.8242C116.013 29.704 115.872 29.5377 115.782 29.3431C115.68 29.1249 115.629 28.8864 115.633 28.6456C115.63 28.4032 115.691 28.1644 115.809 27.9531C115.922 27.7482 116.086 27.5756 116.284 27.4516C116.478 27.3285 116.704 27.2639 116.934 27.2654C117.095 27.2625 117.255 27.2999 117.398 27.374C117.531 27.4431 117.643 27.5458 117.723 27.672C117.804 27.799 117.846 27.9468 117.844 28.0973C117.844 28.2463 117.78 28.3208 117.652 28.3208H116.394C116.371 28.3189 116.348 28.3222 116.326 28.3305C116.304 28.3387 116.284 28.3517 116.267 28.3686C116.235 28.4193 116.221 28.4795 116.227 28.5393C116.225 28.7038 116.264 28.8661 116.342 29.0111C116.414 29.1468 116.519 29.2619 116.648 29.3455C116.779 29.4292 116.932 29.4724 117.088 29.4696C117.202 29.4707 117.315 29.4462 117.419 29.398C117.524 29.3476 117.621 29.2817 117.707 29.2024C117.723 29.19 117.737 29.1786 117.75 29.1683C117.76 29.1588 117.773 29.1533 117.787 29.1527C117.828 29.1527 117.849 29.1776 117.849 29.2273C117.843 29.3029 117.818 29.3757 117.775 29.4383C117.719 29.5409 117.647 29.6333 117.561 29.7115C117.462 29.8018 117.348 29.8724 117.223 29.9195C117.085 29.9726 116.938 29.9993 116.791 29.9981H116.791ZM116.394 28.0796H116.834C116.941 28.0796 117.022 28.0776 117.075 28.0734C117.127 28.0698 117.179 28.0618 117.23 28.0495C117.251 28.0454 117.265 28.0278 117.273 27.9968C117.282 27.9612 117.286 27.9247 117.286 27.8881C117.287 27.8346 117.276 27.7815 117.254 27.7327C117.232 27.6839 117.199 27.6405 117.159 27.6056C117.073 27.5286 116.961 27.4875 116.846 27.4908C116.756 27.4918 116.668 27.5188 116.592 27.5684C116.512 27.618 116.442 27.684 116.388 27.762C116.337 27.8321 116.311 27.9174 116.314 28.0042C116.314 28.0545 116.341 28.0796 116.394 28.0796ZM121.935 29.9981C121.636 29.9998 121.338 29.9505 121.056 29.8522C120.787 29.7597 120.539 29.6177 120.322 29.4336C120.111 29.2531 119.94 29.0299 119.821 28.7786C119.697 28.5136 119.634 28.2238 119.638 27.9311C119.637 27.648 119.698 27.368 119.818 27.1116C119.939 26.8521 120.112 26.6198 120.325 26.4286C120.554 26.2238 120.82 26.0647 121.108 25.9599C121.429 25.8431 121.767 25.7853 122.108 25.7892C122.242 25.7887 122.375 25.798 122.508 25.8171C122.633 25.8357 122.756 25.8585 122.876 25.8854C122.995 25.9123 123.113 25.9465 123.229 25.9878C123.27 26.0016 123.307 26.025 123.337 26.0561C123.365 26.089 123.382 26.1306 123.384 26.1741C123.399 26.2983 123.412 26.4214 123.421 26.5435C123.43 26.6656 123.434 26.7867 123.433 26.9067C123.436 26.9244 123.434 26.9426 123.426 26.9588C123.418 26.975 123.406 26.9883 123.39 26.9967C123.374 27.0058 123.356 27.0111 123.338 27.0121C123.32 27.0132 123.301 27.0101 123.284 27.0029C123.265 26.9948 123.248 26.9826 123.234 26.967C123.22 26.9514 123.21 26.933 123.204 26.9129C123.173 26.8019 123.134 26.6931 123.089 26.587C123.047 26.4862 122.98 26.3977 122.894 26.3293C122.787 26.2443 122.666 26.1801 122.535 26.1399C122.371 26.0894 122.199 26.0652 122.028 26.0683C121.817 26.0654 121.61 26.1122 121.421 26.2049C121.24 26.2957 121.08 26.4249 120.954 26.5836C120.823 26.7468 120.721 26.9317 120.653 27.13C120.583 27.3356 120.547 27.5517 120.548 27.7692C120.546 28.0227 120.578 28.2754 120.643 28.5204C120.702 28.7444 120.8 28.9559 120.934 29.1444C121.058 29.3192 121.22 29.4635 121.408 29.5666C121.604 29.6706 121.824 29.7229 122.046 29.7187C122.308 29.7307 122.567 29.6613 122.789 29.52C122.996 29.3666 123.162 29.1639 123.271 28.9302C123.282 28.9022 123.3 28.8779 123.324 28.8608C123.349 28.8437 123.378 28.8346 123.408 28.8347C123.465 28.8368 123.494 28.8709 123.494 28.9371C123.493 28.9996 123.487 29.0619 123.476 29.1234C123.463 29.1979 123.446 29.2775 123.423 29.3622C123.4 29.4469 123.375 29.5307 123.346 29.6136C123.334 29.6551 123.313 29.6933 123.284 29.7254C123.251 29.755 123.213 29.7782 123.172 29.7937C122.994 29.8658 122.808 29.9169 122.618 29.9458C122.392 29.9818 122.164 29.9993 121.935 29.9981ZM124.046 29.9298C124.016 29.9305 123.986 29.9241 123.959 29.9111C123.948 29.9066 123.938 29.8989 123.932 29.8889C123.925 29.879 123.922 29.8672 123.922 29.8553C123.921 29.8403 123.924 29.8255 123.932 29.8124C123.939 29.7992 123.949 29.7883 123.962 29.7808C123.995 29.7614 124.029 29.7448 124.064 29.7311C124.122 29.7119 124.179 29.6891 124.234 29.6628C124.286 29.638 124.312 29.5822 124.312 29.4956V26.4654C124.315 26.3645 124.297 26.2642 124.259 26.1705C124.24 26.1296 124.211 26.0941 124.175 26.0675C124.139 26.0409 124.096 26.024 124.052 26.0184C124.011 26.0101 123.99 25.9791 123.99 25.9253C123.99 25.8756 124.008 25.8466 124.046 25.8384C124.154 25.8163 124.26 25.7873 124.364 25.7514C124.474 25.7142 124.577 25.6769 124.674 25.6397C124.771 25.6024 124.852 25.5735 124.918 25.5528C124.938 25.543 124.959 25.5367 124.98 25.5341C124.989 25.5333 124.997 25.5349 125.005 25.5388C125.013 25.5426 125.019 25.5485 125.024 25.5559C125.031 25.568 125.036 25.5819 125.036 25.5962C125.033 25.6596 125.027 25.7228 125.018 25.7856C125.003 25.9106 124.997 26.0363 124.998 26.1622V29.489C124.998 29.5759 125.023 29.6316 125.072 29.6561C125.126 29.6828 125.182 29.7056 125.239 29.7244C125.274 29.7381 125.308 29.7547 125.341 29.7741C125.354 29.7816 125.365 29.7925 125.372 29.8057C125.379 29.8188 125.382 29.8337 125.381 29.8486C125.381 29.8606 125.378 29.8723 125.371 29.8823C125.365 29.8922 125.355 29.9 125.344 29.9045C125.317 29.9174 125.287 29.9238 125.258 29.9231C125.179 29.9231 125.107 29.92 125.041 29.9138C124.975 29.9076 124.91 29.9034 124.846 29.9014C124.782 29.8993 124.713 29.8982 124.638 29.8982C124.568 29.8982 124.503 29.9003 124.443 29.9045C124.384 29.9086 124.323 29.9139 124.262 29.9205C124.2 29.9267 124.128 29.9298 124.046 29.9298ZM125.736 29.9298C125.708 29.9311 125.68 29.9235 125.656 29.908C125.646 29.9017 125.638 29.8929 125.632 29.8826C125.627 29.8723 125.624 29.8607 125.625 29.8491C125.624 29.8345 125.627 29.8199 125.633 29.8068C125.64 29.7938 125.65 29.7826 125.662 29.7746C125.688 29.7572 125.718 29.7446 125.748 29.7373C125.824 29.722 125.896 29.6947 125.963 29.6566C125.985 29.6395 126.003 29.6167 126.015 29.5906C126.026 29.5645 126.031 29.5359 126.028 29.5076V28.1603C126.034 28.0572 126.013 27.9542 125.966 27.8623C125.942 27.8274 125.911 27.7982 125.874 27.7768C125.838 27.7553 125.797 27.7421 125.755 27.7382C125.745 27.7362 125.736 27.7321 125.727 27.7262C125.719 27.7204 125.711 27.7128 125.706 27.704C125.693 27.6847 125.687 27.6619 125.687 27.6388C125.687 27.5809 125.71 27.5498 125.755 27.5457C125.934 27.5108 126.108 27.4534 126.272 27.375C126.419 27.3025 126.531 27.2456 126.61 27.2042C126.644 27.1837 126.682 27.169 126.721 27.1608C126.766 27.1608 126.789 27.1815 126.789 27.2229C126.785 27.2808 126.777 27.3604 126.765 27.4616C126.754 27.5629 126.742 27.671 126.729 27.7859C126.719 27.8997 126.714 28.0063 126.714 28.1057V29.5026C126.712 29.5303 126.718 29.5579 126.73 29.5829C126.741 29.6079 126.759 29.6296 126.782 29.6458C126.849 29.6884 126.922 29.7199 126.998 29.739C127.028 29.75 127.057 29.7635 127.085 29.7793C127.097 29.7866 127.107 29.7971 127.114 29.8098C127.12 29.8225 127.123 29.8367 127.122 29.851C127.122 29.9006 127.087 29.9255 127.017 29.9255C126.939 29.9255 126.863 29.9234 126.791 29.9193L126.581 29.9068C126.512 29.9027 126.441 29.9006 126.366 29.9006C126.296 29.9006 126.228 29.9027 126.162 29.9068C126.096 29.911 126.029 29.9162 125.961 29.9224C125.893 29.9273 125.818 29.9298 125.736 29.9298ZM126.355 26.8016C126.299 26.8028 126.243 26.7924 126.191 26.7711C126.138 26.7497 126.091 26.7178 126.052 26.6775C126.012 26.6389 125.98 26.5926 125.959 26.5413C125.938 26.4901 125.927 26.435 125.928 26.3795C125.926 26.321 125.936 26.2628 125.957 26.2083C125.979 26.1539 126.011 26.1044 126.052 26.0628C126.091 26.0224 126.138 25.9906 126.191 25.9692C126.243 25.9479 126.299 25.9375 126.355 25.9386C126.412 25.9371 126.469 25.9473 126.523 25.9686C126.576 25.99 126.624 26.022 126.665 26.0628C126.706 26.1044 126.738 26.1539 126.759 26.2083C126.78 26.2628 126.79 26.321 126.788 26.3795C126.789 26.435 126.779 26.4901 126.757 26.5413C126.736 26.5926 126.705 26.6389 126.665 26.6775C126.624 26.7181 126.576 26.75 126.523 26.7712C126.469 26.7923 126.412 26.8024 126.355 26.8007V26.8016ZM128.527 29.9981C128.314 30.0022 128.105 29.9416 127.927 29.8242C127.749 29.7039 127.608 29.5376 127.518 29.3431C127.416 29.1247 127.365 28.8857 127.369 28.6446C127.367 28.4023 127.428 28.1635 127.546 27.9521C127.659 27.7479 127.822 27.5759 128.019 27.4523C128.214 27.3292 128.439 27.2646 128.669 27.2661C128.831 27.2633 128.99 27.3006 129.134 27.3747C129.266 27.4438 129.378 27.5465 129.459 27.6727C129.539 27.7997 129.581 27.9475 129.579 28.098C129.579 28.247 129.515 28.3215 129.387 28.3215H128.131C128.108 28.3196 128.084 28.3229 128.063 28.3312C128.041 28.3394 128.021 28.3525 128.004 28.3693C127.972 28.42 127.958 28.4802 127.964 28.54C127.962 28.7045 128.001 28.8668 128.079 29.0119C128.151 29.1475 128.256 29.2626 128.385 29.3462C128.516 29.4299 128.669 29.4731 128.825 29.4703C128.939 29.4714 129.052 29.447 129.156 29.3987C129.261 29.3483 129.358 29.2824 129.444 29.2031C129.46 29.1907 129.474 29.1793 129.487 29.169C129.497 29.1595 129.51 29.154 129.524 29.1535C129.565 29.1535 129.586 29.1783 129.586 29.228C129.58 29.3036 129.555 29.3764 129.512 29.4391C129.456 29.5417 129.384 29.634 129.297 29.7122C129.199 29.8025 129.085 29.8731 128.96 29.9202C128.822 29.9731 128.675 29.9995 128.527 29.9981ZM128.131 28.0796H128.571C128.678 28.0796 128.759 28.0776 128.812 28.0734C128.864 28.0698 128.916 28.0618 128.967 28.0495C128.988 28.0454 129.002 28.0278 129.01 27.9968C129.019 27.9612 129.023 27.9247 129.023 27.8881C129.023 27.8346 129.012 27.7815 128.991 27.7327C128.969 27.6839 128.936 27.6405 128.896 27.6056C128.81 27.5286 128.698 27.4875 128.583 27.4908C128.493 27.4918 128.405 27.5188 128.329 27.5684C128.248 27.6186 128.179 27.6852 128.125 27.764C128.074 27.8341 128.048 27.9193 128.051 28.0061C128.051 28.0551 128.078 28.0796 128.131 28.0796ZM130.001 29.9298C129.97 29.9305 129.941 29.923 129.914 29.908C129.903 29.9027 129.894 29.8943 129.887 29.8839C129.881 29.8735 129.877 29.8614 129.877 29.8491C129.876 29.8341 129.88 29.8193 129.887 29.8062C129.894 29.793 129.904 29.7821 129.917 29.7746C129.949 29.7557 129.984 29.7411 130.019 29.7311C130.079 29.7156 130.136 29.6926 130.19 29.6628C130.217 29.6449 130.238 29.6198 130.252 29.5903C130.266 29.5608 130.271 29.528 130.267 29.4956V28.1045C130.269 28.0209 130.255 27.9377 130.227 27.8592C130.212 27.8243 130.189 27.7938 130.159 27.7704C130.129 27.7471 130.094 27.7317 130.056 27.7257C130.04 27.7174 130.025 27.7058 130.013 27.6916C129.999 27.6706 129.992 27.6453 129.995 27.62C129.995 27.5662 130.013 27.5351 130.05 27.5268C130.197 27.4931 130.341 27.4485 130.481 27.3934C130.61 27.3438 130.735 27.2847 130.855 27.2164C130.872 27.2076 130.889 27.1972 130.905 27.1854C130.919 27.1739 130.936 27.1673 130.954 27.1667C130.962 27.1657 130.97 27.1672 130.978 27.1711C130.985 27.175 130.991 27.1811 130.994 27.1885C131.001 27.2036 131.004 27.2198 131.004 27.2362C131.001 27.2903 130.996 27.3442 130.988 27.3977C130.979 27.4655 130.973 27.534 130.973 27.6025C130.973 27.6202 130.974 27.6378 130.976 27.6553C130.976 27.6673 130.979 27.6791 130.985 27.6895C131.114 27.5648 131.261 27.4602 131.421 27.379C131.581 27.3026 131.756 27.2643 131.932 27.2673C132.033 27.2658 132.132 27.2867 132.224 27.3286C132.316 27.3704 132.397 27.4322 132.461 27.5094C132.61 27.6881 132.687 27.9163 132.676 28.1489V29.5023C132.671 29.5336 132.676 29.5655 132.689 29.5941C132.702 29.6228 132.723 29.647 132.75 29.6638C132.804 29.6904 132.86 29.7132 132.917 29.732C132.949 29.7442 132.98 29.7598 133.01 29.7786C133.023 29.7865 133.034 29.7978 133.042 29.8115C133.049 29.8251 133.053 29.8406 133.053 29.8562C133.053 29.8686 133.049 29.8806 133.042 29.8906C133.034 29.9006 133.024 29.9081 133.013 29.9121C132.988 29.9239 132.962 29.9302 132.935 29.9307C132.853 29.9307 132.78 29.9276 132.719 29.9214C132.657 29.9152 132.596 29.91 132.536 29.9059C132.476 29.9017 132.409 29.8997 132.335 29.8997C132.265 29.8997 132.199 29.9017 132.137 29.9059C132.075 29.91 132.012 29.9152 131.948 29.9214C131.884 29.9276 131.811 29.9307 131.728 29.9307C131.704 29.9296 131.681 29.9229 131.66 29.9111C131.649 29.9066 131.639 29.8989 131.633 29.8889C131.626 29.879 131.623 29.8672 131.623 29.8553C131.622 29.8403 131.625 29.8253 131.632 29.8118C131.638 29.7983 131.648 29.7865 131.66 29.7777C131.686 29.7581 131.715 29.7424 131.746 29.7311C131.803 29.7127 131.858 29.6899 131.91 29.6628C131.936 29.6454 131.957 29.6211 131.97 29.5925C131.982 29.5639 131.986 29.5323 131.982 29.5014V28.2411C131.99 28.1004 131.947 27.9615 131.861 27.8499C131.821 27.8028 131.772 27.7655 131.715 27.7406C131.659 27.7158 131.598 27.7042 131.536 27.7066C131.437 27.7045 131.338 27.7214 131.245 27.7563C131.158 27.7921 131.077 27.8404 131.004 27.8996C130.987 27.9131 130.974 27.9315 130.967 27.9524C130.958 27.9753 130.954 27.9996 130.954 28.024V29.5016C130.95 29.533 130.954 29.5649 130.967 29.5939C130.98 29.623 131 29.6479 131.026 29.6661C131.077 29.6948 131.133 29.7167 131.19 29.7313C131.276 29.7603 131.32 29.7996 131.32 29.8493C131.32 29.861 131.317 29.8725 131.312 29.8828C131.307 29.8932 131.299 29.9019 131.289 29.9083C131.265 29.9237 131.237 29.9313 131.208 29.93C131.126 29.93 131.054 29.9269 130.992 29.9207C130.93 29.9145 130.87 29.9093 130.812 29.9052C130.754 29.901 130.688 29.899 130.614 29.899C130.544 29.899 130.478 29.901 130.416 29.9052C130.354 29.9093 130.29 29.9145 130.224 29.9207C130.158 29.9267 130.083 29.9298 130.001 29.9298ZM134.39 29.9981C134.287 30.0054 134.184 29.9916 134.087 29.9574C133.991 29.9233 133.902 29.8695 133.826 29.7994C133.689 29.6399 133.62 29.4323 133.635 29.222V27.7878C133.635 27.7729 133.631 27.7582 133.624 27.7453C133.617 27.7323 133.606 27.7216 133.593 27.7143C133.543 27.6926 133.489 27.682 133.435 27.6832H133.367C133.342 27.6832 133.322 27.6636 133.305 27.6243C133.29 27.588 133.282 27.5489 133.281 27.5094C133.282 27.4975 133.286 27.486 133.291 27.4753C133.293 27.4689 133.297 27.4631 133.302 27.4583C133.306 27.4534 133.312 27.4497 133.319 27.4473C133.421 27.4013 133.519 27.344 133.61 27.2766C133.709 27.2042 133.801 27.1296 133.888 27.0531C133.975 26.9765 134.047 26.9113 134.105 26.8575C134.13 26.8401 134.153 26.8215 134.176 26.8016C134.194 26.7858 134.217 26.7773 134.241 26.7778C134.269 26.7761 134.296 26.7838 134.319 26.7995C134.337 26.814 134.342 26.8419 134.334 26.8833L134.297 27.2248C134.293 27.2744 134.304 27.3075 134.331 27.3241C134.366 27.3423 134.406 27.3506 134.445 27.348H135.176C135.188 27.348 135.201 27.3625 135.213 27.3914C135.225 27.4188 135.231 27.4484 135.232 27.4784C135.232 27.5289 135.225 27.5791 135.21 27.6274C135.196 27.6729 135.178 27.6957 135.157 27.6957H134.569C134.503 27.6904 134.436 27.7011 134.374 27.7267C134.355 27.7418 134.34 27.7618 134.33 27.7847C134.321 27.8076 134.318 27.8326 134.322 27.8571V29.0491C134.312 29.1945 134.349 29.3393 134.427 29.462C134.461 29.5078 134.506 29.5445 134.558 29.5688C134.61 29.5932 134.667 29.6045 134.724 29.6017C134.812 29.605 134.901 29.5945 134.986 29.5706C135.043 29.5512 135.098 29.5263 135.15 29.4961C135.159 29.4891 135.17 29.4848 135.181 29.4837C135.192 29.4839 135.202 29.4876 135.211 29.4944C135.22 29.5011 135.226 29.5104 135.229 29.521C135.239 29.5466 135.244 29.574 135.244 29.6017C135.244 29.6224 135.204 29.6658 135.123 29.732C135.027 29.8072 134.921 29.8685 134.807 29.9142C134.675 29.9705 134.533 29.999 134.39 29.9981ZM136.946 29.935C136.912 29.9357 136.878 29.9282 136.847 29.9133C136.835 29.9089 136.824 29.9009 136.817 29.8904C136.809 29.8799 136.805 29.8673 136.804 29.8543C136.804 29.7922 136.856 29.7508 136.959 29.7301C137.079 29.7123 137.194 29.6655 137.292 29.5936C137.328 29.5549 137.356 29.5088 137.373 29.4585C137.39 29.4081 137.396 29.3547 137.391 29.3018V26.57C137.4 26.449 137.373 26.3281 137.314 26.2223C137.237 26.1332 137.13 26.0757 137.014 26.0609C136.968 26.0542 136.926 26.036 136.89 26.0081C136.879 25.9995 136.87 25.9887 136.863 25.9763C136.857 25.964 136.853 25.9504 136.853 25.9365C136.852 25.9229 136.856 25.9095 136.863 25.8979C136.87 25.8863 136.88 25.8771 136.893 25.8713C136.927 25.8553 136.964 25.8479 137.001 25.8496C137.1 25.8496 137.192 25.8506 137.277 25.8527C137.361 25.8548 137.443 25.8579 137.521 25.862C137.6 25.8661 137.68 25.8682 137.763 25.8682C137.848 25.8685 137.934 25.8643 138.019 25.8558L138.267 25.8319C138.352 25.8236 138.45 25.8195 138.561 25.8195C138.976 25.7984 139.387 25.9068 139.737 26.1299C139.877 26.2234 139.991 26.3512 140.068 26.5011C140.145 26.6511 140.182 26.8182 140.177 26.9867C140.179 27.2327 140.125 27.4759 140.019 27.6976C139.913 27.9163 139.745 28.099 139.536 28.2229C139.286 28.3638 139.002 28.4326 138.716 28.4216C138.635 28.4259 138.554 28.4095 138.481 28.3738C138.427 28.342 138.4 28.3078 138.4 28.2714C138.401 28.258 138.405 28.245 138.412 28.2336C138.419 28.2222 138.429 28.2128 138.44 28.2062C138.461 28.1899 138.486 28.1802 138.512 28.1783C138.548 28.1782 138.584 28.1813 138.62 28.1876C138.672 28.1949 138.725 28.198 138.778 28.1969C138.873 28.1969 138.966 28.1686 139.045 28.1155C139.123 28.0625 139.185 27.987 139.221 27.8989C139.332 27.6494 139.384 27.3773 139.372 27.1042C139.396 26.8205 139.318 26.5375 139.153 26.3064C139.079 26.223 138.988 26.1571 138.885 26.1136C138.783 26.0701 138.672 26.0501 138.561 26.0549C138.466 26.0493 138.372 26.0744 138.292 26.1266C138.259 26.1537 138.233 26.1885 138.216 26.228C138.2 26.2675 138.193 26.3105 138.197 26.3532L138.191 29.2664C138.186 29.3219 138.193 29.3776 138.211 29.4304C138.228 29.4832 138.256 29.5319 138.293 29.5737C138.393 29.6573 138.514 29.7121 138.643 29.732C138.684 29.7361 138.725 29.7499 138.76 29.7724C138.772 29.7813 138.782 29.793 138.788 29.8066C138.795 29.8201 138.798 29.835 138.797 29.85C138.798 29.8626 138.795 29.8751 138.789 29.8861C138.783 29.8971 138.774 29.9061 138.763 29.9121C138.731 29.9264 138.696 29.9328 138.661 29.9307C138.566 29.9307 138.469 29.9276 138.37 29.9214C138.271 29.9152 138.175 29.91 138.082 29.9059C137.989 29.9017 137.902 29.8997 137.819 29.8997C137.728 29.8997 137.635 29.9017 137.538 29.9059C137.441 29.91 137.343 29.9162 137.243 29.9245C137.144 29.9315 137.045 29.935 136.946 29.935ZM141.571 29.9971C141.341 30.0007 141.115 29.944 140.914 29.8326C140.722 29.7245 140.562 29.567 140.45 29.3763C140.333 29.177 140.273 28.9493 140.277 28.7182C140.276 28.5303 140.314 28.3444 140.388 28.1718C140.461 27.9999 140.564 27.8423 140.692 27.7062C140.82 27.5693 140.974 27.4586 141.144 27.3802C141.318 27.2992 141.509 27.2579 141.701 27.2592C141.939 27.2555 142.173 27.3166 142.379 27.4361C142.575 27.5503 142.74 27.7115 142.858 27.9053C142.977 28.0971 143.039 28.3189 143.038 28.5448C143.039 28.7931 142.983 29.0385 142.874 29.2612C142.765 29.4822 142.595 29.6674 142.385 29.7951C142.138 29.9379 141.856 30.0083 141.571 29.9981V29.9971ZM141.694 29.755C141.79 29.7567 141.884 29.7354 141.97 29.6929C142.052 29.6495 142.12 29.5825 142.165 29.5004C142.221 29.3932 142.255 29.2762 142.267 29.1559C142.286 29.0024 142.295 28.8479 142.295 28.6933C142.298 28.491 142.268 28.2895 142.208 28.0963C142.161 27.9371 142.078 27.7906 141.967 27.668C141.921 27.6169 141.864 27.5761 141.801 27.5483C141.738 27.5205 141.67 27.5062 141.602 27.5065C141.528 27.5054 141.455 27.5192 141.387 27.5469C141.319 27.5771 141.258 27.6228 141.211 27.6804C141.129 27.7836 141.077 27.9069 141.059 28.0374C141.03 28.211 141.017 28.3867 141.019 28.5627C141.018 28.7567 141.048 28.9495 141.109 29.1339C141.158 29.2976 141.241 29.4496 141.35 29.5809C141.391 29.6339 141.443 29.6771 141.503 29.7074C141.562 29.7377 141.628 29.7543 141.694 29.7559V29.755ZM143.477 29.9288C143.447 29.9295 143.417 29.922 143.391 29.9071C143.379 29.9017 143.37 29.8934 143.364 29.8829C143.357 29.8725 143.353 29.8604 143.353 29.8481C143.353 29.8332 143.356 29.8183 143.363 29.8052C143.37 29.7921 143.381 29.7811 143.394 29.7736C143.426 29.7548 143.46 29.7402 143.496 29.7301C143.563 29.7153 143.626 29.6844 143.678 29.6401C143.697 29.6206 143.711 29.5977 143.72 29.5726C143.729 29.5475 143.733 29.5208 143.731 29.4942V28.0973C143.733 28.0158 143.72 27.9347 143.691 27.8585C143.675 27.8249 143.651 27.7957 143.622 27.7735C143.592 27.7513 143.557 27.7368 143.521 27.7312C143.503 27.722 143.486 27.7105 143.471 27.6971C143.463 27.6886 143.456 27.6784 143.452 27.6671C143.448 27.6559 143.446 27.6439 143.447 27.6319C143.444 27.6099 143.45 27.5876 143.462 27.5693C143.475 27.5509 143.494 27.5379 143.515 27.5326C143.652 27.4953 143.786 27.4507 143.918 27.3991C144.043 27.352 144.165 27.297 144.283 27.2346C144.304 27.2221 144.326 27.2097 144.351 27.1973C144.368 27.1873 144.387 27.181 144.407 27.1787C144.44 27.1787 144.456 27.1994 144.456 27.2408C144.456 27.2567 144.455 27.2939 144.453 27.3525C144.451 27.4111 144.449 27.4742 144.447 27.5419C144.445 27.6102 144.442 27.6712 144.438 27.725C144.438 27.7499 144.444 27.7623 144.456 27.7623C144.523 27.6748 144.597 27.5937 144.679 27.5201C144.759 27.4476 144.846 27.3851 144.941 27.3339C145.027 27.286 145.124 27.2603 145.223 27.2594C145.318 27.2523 145.413 27.2786 145.492 27.3339C145.52 27.3559 145.543 27.3841 145.559 27.4164C145.574 27.4488 145.582 27.4843 145.582 27.5201C145.58 27.5849 145.564 27.6485 145.535 27.7064C145.506 27.7698 145.466 27.8275 145.418 27.8771C145.398 27.8992 145.373 27.917 145.346 27.9293C145.319 27.9416 145.29 27.9482 145.26 27.9488C145.224 27.9482 145.188 27.9408 145.155 27.927C145.116 27.912 145.079 27.8944 145.043 27.8743C145.006 27.8584 144.968 27.8418 144.929 27.8246C144.894 27.8095 144.858 27.8014 144.82 27.8007C144.716 27.8011 144.616 27.8424 144.542 27.9156C144.443 28.0434 144.398 28.2052 144.418 28.3657V29.4574C144.416 29.4904 144.423 29.5232 144.437 29.553C144.451 29.5828 144.472 29.6087 144.498 29.6282C144.574 29.6777 144.658 29.7144 144.746 29.7368C144.782 29.7453 144.816 29.7589 144.848 29.7772C144.86 29.785 144.869 29.7957 144.875 29.8083C144.881 29.8209 144.883 29.8349 144.882 29.8488C144.882 29.9026 144.845 29.9295 144.771 29.9295C144.647 29.9295 144.53 29.9244 144.421 29.914C144.312 29.9037 144.203 29.8985 144.096 29.8985C144.026 29.8985 143.959 29.9006 143.895 29.9047C143.831 29.9088 143.766 29.914 143.7 29.9202C143.634 29.9266 143.56 29.9298 143.477 29.9298V29.9288ZM146.9 29.9971C146.798 30.0045 146.695 29.9907 146.598 29.9565C146.501 29.9223 146.412 29.8685 146.337 29.7984C146.2 29.639 146.131 29.4314 146.145 29.221V27.7878C146.146 27.7729 146.143 27.7581 146.136 27.7449C146.128 27.7318 146.118 27.7209 146.105 27.7133C146.055 27.6917 146.001 27.6811 145.947 27.6823H145.879C145.854 27.6823 145.833 27.6626 145.817 27.6233C145.801 27.587 145.793 27.5479 145.793 27.5084C145.794 27.4966 145.797 27.485 145.802 27.4743C145.805 27.4679 145.808 27.4621 145.813 27.4573C145.818 27.4525 145.824 27.4488 145.83 27.4464C145.933 27.4003 146.03 27.343 146.121 27.2756C146.22 27.2032 146.313 27.1287 146.4 27.0521C146.486 26.9756 146.558 26.9104 146.616 26.8566C146.641 26.8392 146.665 26.8205 146.688 26.8007C146.706 26.7848 146.729 26.7763 146.753 26.7768C146.78 26.7752 146.807 26.7828 146.83 26.7985C146.849 26.813 146.854 26.841 146.845 26.8823L146.808 27.2238C146.804 27.2735 146.816 27.3066 146.842 27.3231C146.878 27.3413 146.917 27.3496 146.957 27.347H147.687C147.7 27.347 147.712 27.3615 147.724 27.3905C147.737 27.4179 147.743 27.4475 147.743 27.4774C147.744 27.5279 147.736 27.5782 147.721 27.6264C147.707 27.6719 147.689 27.6947 147.669 27.6947H147.081C147.014 27.6895 146.947 27.7001 146.886 27.7257C146.866 27.7408 146.851 27.7609 146.842 27.7838C146.833 27.8067 146.83 27.8317 146.833 27.8561V29.0482C146.823 29.1935 146.86 29.3383 146.938 29.461C146.973 29.5069 147.018 29.5436 147.07 29.5679C147.122 29.5923 147.179 29.6035 147.236 29.6007C147.324 29.6041 147.412 29.5936 147.498 29.5697C147.555 29.5503 147.61 29.5253 147.662 29.4952C147.671 29.4882 147.681 29.4839 147.693 29.4828C147.703 29.4829 147.714 29.4867 147.723 29.4934C147.731 29.5001 147.737 29.5095 147.74 29.52C147.751 29.5456 147.756 29.573 147.756 29.6007C147.756 29.6214 147.715 29.6649 147.635 29.7311C147.539 29.8066 147.432 29.8682 147.319 29.9142C147.187 29.9707 147.044 29.9992 146.9 29.9981V29.9971ZM148.578 29.9971C148.479 29.997 148.381 29.969 148.296 29.9164C148.209 29.8643 148.136 29.7919 148.082 29.7053C148.031 29.6257 148.003 29.5332 148.002 29.4383C147.996 29.3117 148.041 29.188 148.125 29.0938C148.232 28.9894 148.358 28.9081 148.497 28.855L149.073 28.6066C149.13 28.5897 149.183 28.5575 149.224 28.5135C149.247 28.463 149.257 28.4074 149.252 28.3521L149.264 27.9858C149.273 27.8872 149.248 27.7886 149.193 27.7064C149.166 27.671 149.131 27.6428 149.09 27.6244C149.05 27.606 149.005 27.5979 148.961 27.6009C148.904 27.6015 148.848 27.612 148.794 27.6319C148.743 27.6484 148.697 27.6759 148.658 27.7126C148.641 27.7307 148.629 27.7533 148.624 27.7778C148.618 27.8032 148.615 27.8293 148.615 27.8554C148.615 27.8761 148.616 27.902 148.618 27.933C148.62 27.9641 148.621 27.992 148.621 28.0168C148.621 28.0417 148.59 28.0727 148.528 28.11C148.461 28.1496 148.391 28.1828 148.318 28.2093C148.255 28.235 148.188 28.2497 148.119 28.2528C148.106 28.2533 148.094 28.2508 148.082 28.2454C148.07 28.24 148.059 28.2319 148.051 28.2217C148.035 28.2004 148.027 28.1741 148.028 28.1472C148.029 28.0751 148.052 28.005 148.093 27.9454C148.15 27.8618 148.22 27.7875 148.3 27.725C148.406 27.6364 148.52 27.5585 148.64 27.4922C148.756 27.4275 148.878 27.3724 149.003 27.3277C149.101 27.2901 149.204 27.2691 149.309 27.2656C149.398 27.2619 149.486 27.2775 149.568 27.3112C149.651 27.345 149.725 27.3961 149.785 27.4612C149.846 27.5309 149.893 27.612 149.923 27.6999C149.953 27.7878 149.965 27.8808 149.958 27.9734L149.928 29.302C149.921 29.3822 149.939 29.4625 149.98 29.5317C149.994 29.5588 150.015 29.5817 150.04 29.5981C150.066 29.6145 150.095 29.6237 150.126 29.6248C150.203 29.6283 150.278 29.6016 150.336 29.5503C150.347 29.5372 150.363 29.5287 150.379 29.5265C150.389 29.5263 150.399 29.5281 150.408 29.5318C150.417 29.5356 150.425 29.5411 150.432 29.5482C150.439 29.555 150.445 29.5632 150.448 29.5723C150.452 29.5814 150.454 29.5911 150.454 29.601C150.442 29.667 150.407 29.7266 150.355 29.7681C150.286 29.8387 150.205 29.8965 150.117 29.9388C150.038 29.9767 149.953 29.9968 149.866 29.9978C149.754 29.9954 149.646 29.9623 149.552 29.902C149.458 29.8418 149.382 29.7568 149.334 29.6564H149.315C149.203 29.7601 149.076 29.8479 148.94 29.9174C148.827 29.9711 148.703 29.9987 148.578 29.9981V29.9971ZM148.919 29.6246C148.969 29.6259 149.02 29.6164 149.067 29.5967C149.107 29.5788 149.143 29.5523 149.172 29.5191C149.19 29.4966 149.203 29.4715 149.213 29.4445C149.225 29.4042 149.232 29.3625 149.234 29.3204L149.247 28.923C149.253 28.8945 149.249 28.8646 149.234 28.8392C149.229 28.8326 149.223 28.8271 149.215 28.8234C149.208 28.8196 149.199 28.8176 149.191 28.8175C149.178 28.8178 149.166 28.8189 149.154 28.8206C149.134 28.8239 149.115 28.8313 149.098 28.8423C148.976 28.8852 148.864 28.9528 148.77 29.041C148.702 29.1154 148.667 29.2136 148.671 29.3142C148.667 29.3574 148.672 29.4011 148.685 29.4423C148.699 29.4834 148.722 29.5212 148.751 29.553C148.796 29.597 148.856 29.6225 148.919 29.6246ZM150.664 29.9298C150.634 29.9305 150.605 29.9241 150.578 29.9111C150.566 29.9066 150.557 29.8989 150.55 29.8889C150.544 29.879 150.54 29.8672 150.54 29.8553C150.54 29.8403 150.543 29.8255 150.55 29.8124C150.557 29.7992 150.568 29.7883 150.581 29.7808C150.613 29.7614 150.647 29.7448 150.683 29.7311C150.741 29.7119 150.798 29.6891 150.853 29.6628C150.905 29.638 150.93 29.5822 150.93 29.4956V26.4654C150.933 26.3645 150.915 26.2642 150.878 26.1705C150.859 26.1296 150.83 26.0941 150.794 26.0675C150.757 26.0409 150.715 26.024 150.67 26.0184C150.629 26.0101 150.608 25.9791 150.608 25.9253C150.608 25.8756 150.627 25.8466 150.664 25.8384C150.772 25.8163 150.879 25.7873 150.983 25.7514C151.092 25.7142 151.196 25.6769 151.293 25.6397C151.39 25.6024 151.471 25.5735 151.537 25.5528C151.556 25.543 151.577 25.5367 151.599 25.5341C151.607 25.5333 151.616 25.5349 151.624 25.5388C151.631 25.5426 151.638 25.5485 151.642 25.5559C151.65 25.568 151.654 25.5819 151.655 25.5962C151.652 25.6596 151.646 25.7228 151.636 25.7856C151.622 25.9106 151.615 26.0363 151.617 26.1622V29.489C151.617 29.5759 151.641 29.6316 151.691 29.6561C151.745 29.6828 151.8 29.7056 151.858 29.7244C151.893 29.7381 151.927 29.7547 151.96 29.7741C151.973 29.7816 151.983 29.7925 151.99 29.8057C151.997 29.8188 152.001 29.8337 152 29.8486C152 29.8606 151.997 29.8723 151.99 29.8823C151.983 29.8922 151.974 29.9 151.963 29.9045C151.936 29.9174 151.906 29.9238 151.876 29.9231C151.798 29.9231 151.725 29.92 151.659 29.9138C151.593 29.9076 151.528 29.9034 151.464 29.9014C151.401 29.8993 151.332 29.8982 151.257 29.8982C151.187 29.8982 151.122 29.9003 151.062 29.9045C151.002 29.9086 150.941 29.9138 150.879 29.92C150.818 29.9265 150.747 29.9298 150.664 29.9298Z" fill="white"/>
<path d="M40.8791 27.0275C40.8791 27.4705 40.9086 27.7659 41.0262 27.9137C41.1438 28.0615 41.3207 28.1501 41.9686 28.1501C42.7933 28.1501 43.0583 28.1205 43.5876 27.0571C43.6464 26.9685 43.8821 26.9981 43.9409 27.1161C43.8848 27.6243 43.7558 28.1217 43.5581 28.593C43.0869 28.5634 42.2033 28.5634 41.4376 28.5634H40.1996C39.7872 28.5634 39.316 28.5634 38.7565 28.593C38.7167 28.5496 38.6922 28.4943 38.6869 28.4355C38.6816 28.3768 38.6956 28.3179 38.727 28.268L39.0803 28.209C39.4927 28.1501 39.5515 28.0908 39.5515 27.2343V23.8079C39.5515 22.9514 39.4927 22.8628 39.0803 22.8036L38.8165 22.7742C38.7943 22.7523 38.7772 22.7257 38.7666 22.6963C38.7559 22.6669 38.7519 22.6356 38.7548 22.6045C38.7577 22.5733 38.7675 22.5433 38.7834 22.5164C38.7994 22.4896 38.8211 22.4666 38.847 22.4492C39.3182 22.4788 39.7893 22.4788 40.2312 22.4788C40.6731 22.4788 41.1148 22.4788 41.586 22.4492C41.6149 22.4985 41.6302 22.5546 41.6302 22.6117C41.6302 22.6689 41.6149 22.725 41.586 22.7742L41.3503 22.8038C40.9379 22.8628 40.8791 22.9514 40.8791 23.8082V27.0275Z" fill="#F5333F"/>
<path d="M46.6221 25.6387C46.2392 25.6387 46.2392 25.6387 46.2392 25.9045V27.2336C46.2392 28.0901 46.298 28.1787 46.7104 28.2379L47.0049 28.2675C47.0339 28.3168 47.0491 28.3729 47.0491 28.43C47.0491 28.4872 47.0339 28.5433 47.0049 28.5925C46.4747 28.5629 46.0331 28.5629 45.6207 28.5629C45.179 28.5629 44.7076 28.5629 44.2659 28.5925C44.237 28.5433 44.2217 28.4872 44.2217 28.43C44.2217 28.3729 44.237 28.3168 44.2659 28.2675L44.4721 28.2379C44.8845 28.1789 44.9433 28.0904 44.9433 27.2336V23.8074C44.9433 22.9509 44.8845 22.8623 44.4721 22.8031L44.2659 22.7735C44.237 22.7242 44.2217 22.6681 44.2217 22.611C44.2217 22.5538 44.237 22.4977 44.2659 22.4485C44.7076 22.4781 45.179 22.4781 45.6207 22.4781C46.0331 22.4781 46.5042 22.4781 46.8871 22.4485C46.916 22.4977 46.9313 22.5538 46.9313 22.611C46.9313 22.6681 46.916 22.7242 46.8871 22.7735L46.6809 22.8031C46.2981 22.8621 46.2392 22.9507 46.2392 23.8074V24.8708C46.2392 25.1365 46.2392 25.1365 46.6221 25.1365H48.5363C48.9192 25.1365 48.9192 25.1365 48.9192 24.8708V23.8074C48.9192 22.9509 48.8604 22.8917 48.448 22.8031L48.2123 22.7735C48.1834 22.7242 48.1681 22.6681 48.1681 22.611C48.1681 22.5538 48.1834 22.4977 48.2123 22.4485C48.7123 22.4781 49.1547 22.4781 49.5966 22.4781C50.0385 22.4781 50.4801 22.4781 50.8925 22.4485C50.9214 22.4977 50.9367 22.5538 50.9367 22.611C50.9367 22.6681 50.9214 22.7242 50.8925 22.7735L50.7158 22.8031C50.3035 22.8621 50.2446 22.9507 50.2446 23.8074V27.2338C50.2446 28.0904 50.3035 28.1496 50.7158 28.2382L50.922 28.2678C50.9645 28.3111 50.9883 28.3695 50.9883 28.4303C50.9883 28.4911 50.9645 28.5494 50.922 28.5928C50.4508 28.5632 50.0089 28.5632 49.5968 28.5632C49.1256 28.5632 48.6837 28.5632 48.2421 28.5928C48.2131 28.5435 48.1979 28.4874 48.1979 28.4303C48.1979 28.3731 48.2131 28.317 48.2421 28.2678L48.4483 28.2382C48.8606 28.1792 48.9194 28.0906 48.9194 27.2338V25.9047C48.9194 25.6389 48.9194 25.6389 48.5366 25.6389H46.6223L46.6221 25.6387Z" fill="#F5333F"/>
<path d="M52.2473 23.8075C52.2473 22.951 52.1884 22.8918 51.7761 22.8032L51.5404 22.7442C51.5181 22.7223 51.501 22.6958 51.4903 22.6664C51.4795 22.6371 51.4754 22.6058 51.4782 22.5747C51.481 22.5435 51.4907 22.5135 51.5066 22.4866C51.5224 22.4597 51.5441 22.4367 51.5699 22.4192C52.0115 22.4488 52.4534 22.4488 52.8951 22.4488C53.3368 22.4488 53.7787 22.4488 54.2203 22.4192C54.2493 22.4684 54.2645 22.5245 54.2645 22.5817C54.2645 22.6388 54.2493 22.6949 54.2203 22.7442L54.0141 22.7738C53.6018 22.8624 53.5429 22.9214 53.5429 23.7781V25.9055C53.5429 26.9688 53.6608 28.18 55.0451 28.18C56.2231 28.18 56.5765 27.1463 56.5765 25.9055V24.7832C56.5765 24.0449 56.5469 23.3359 56.4293 23.0995C56.341 22.8927 56.1348 22.8631 55.8991 22.8041L55.6634 22.7451C55.6344 22.6959 55.6192 22.6398 55.6192 22.5826C55.6192 22.5255 55.6344 22.4694 55.6634 22.4201C56.1634 22.4498 56.5174 22.4498 56.9015 22.4498C57.2255 22.4498 57.5788 22.4498 57.9321 22.4201C57.9612 22.4693 57.9765 22.5255 57.9765 22.5826C57.9765 22.6398 57.9612 22.6959 57.9321 22.7451L57.7555 22.7747C57.5198 22.8337 57.3431 22.8929 57.2555 23.0701C57.1377 23.6232 57.0883 24.1887 57.1084 24.7538V25.7861C57.1084 26.6426 57.02 27.4402 56.5193 28.0014C56.1069 28.4443 55.4591 28.6511 54.6934 28.6511C53.9865 28.6511 53.3682 28.5329 52.8675 28.1496C52.3963 27.7657 52.1901 27.0863 52.1901 26.082V23.8075H52.2473Z" fill="#F5333F"/>
<path d="M60.4052 27.2042C60.4052 28.0608 60.464 28.12 60.8764 28.2086L61.1414 28.2675C61.1703 28.3168 61.1856 28.3729 61.1856 28.43C61.1856 28.4872 61.1703 28.5433 61.1414 28.5925C60.6414 28.5629 60.199 28.5629 59.7571 28.5629C59.3152 28.5629 58.8736 28.5629 58.3729 28.5925C58.3304 28.5492 58.3066 28.4908 58.3066 28.43C58.3066 28.3693 58.3304 28.3109 58.3729 28.2675L58.6378 28.2086C59.0502 28.1496 59.109 28.061 59.109 27.2042V23.8373C59.109 22.9808 59.0502 22.9215 58.6378 22.8329L58.3729 22.774C58.3304 22.7306 58.3066 22.6723 58.3066 22.6115C58.3066 22.5507 58.3304 22.4923 58.3729 22.449C58.8728 22.4786 59.3152 22.4786 59.7571 22.4786C60.199 22.4786 60.6407 22.4786 61.1414 22.449C61.1703 22.4982 61.1856 22.5543 61.1856 22.6115C61.1856 22.6686 61.1703 22.7247 61.1414 22.774L60.8764 22.8329C60.464 22.8919 60.4052 22.9805 60.4052 23.8373V27.2042Z" fill="#F5333F"/>
<path d="M63.792 27.027C63.792 27.47 63.8216 27.7654 63.9392 27.9132C64.0568 28.061 64.2337 28.1496 64.8815 28.1496C65.7063 28.1496 65.9713 28.12 66.5006 27.0566C66.5594 26.9681 66.7951 26.9977 66.8539 27.1156C66.7836 27.6211 66.6551 28.1167 66.471 28.5925C65.9711 28.5629 65.1163 28.5629 64.3506 28.5629H63.1125C62.7002 28.5629 62.229 28.5629 61.6695 28.5925C61.6297 28.5491 61.6052 28.4938 61.5999 28.435C61.5945 28.3763 61.6086 28.3174 61.6399 28.2675L61.9933 28.2086C62.4056 28.1496 62.4644 28.0904 62.4644 27.2338V23.8074C62.4644 22.9509 62.4056 22.8623 61.9933 22.8031L61.7283 22.7735C61.7062 22.7515 61.6892 22.7248 61.6787 22.6954C61.6681 22.666 61.6642 22.6347 61.6673 22.6036C61.6703 22.5725 61.6802 22.5425 61.6962 22.5157C61.7122 22.4889 61.734 22.466 61.7599 22.4487C62.2311 22.4783 62.7023 22.4783 63.1442 22.4783C63.5861 22.4783 64.0278 22.4783 64.4989 22.4487C64.5279 22.498 64.5431 22.5541 64.5431 22.6112C64.5431 22.6684 64.5279 22.7245 64.4989 22.7737L64.2632 22.8033C63.8509 22.8623 63.792 22.9509 63.792 23.8077V27.027Z" fill="#F5333F"/>
<path d="M69.1522 27.027C69.1522 27.47 69.1817 27.7654 69.2993 27.9132C69.4169 28.061 69.5938 28.1496 70.2417 28.1496C71.0664 28.1496 71.3314 28.12 71.8607 27.0566C71.9195 26.9681 72.1552 26.9977 72.214 27.1156C72.1578 27.6238 72.0289 28.1212 71.8312 28.5925C71.3312 28.5629 70.4764 28.5629 69.7107 28.5629H68.4726C68.0603 28.5629 67.5891 28.5629 67.0296 28.5925C66.9898 28.5491 66.9653 28.4938 66.96 28.435C66.9546 28.3763 66.9687 28.3174 67 28.2675L67.3534 28.2086C67.7657 28.1496 67.8246 28.0904 67.8246 27.2338V23.8074C67.8246 22.9509 67.7657 22.8623 67.3534 22.8031L67.0896 22.7737C67.0674 22.7518 67.0503 22.7252 67.0396 22.6958C67.029 22.6665 67.025 22.6351 67.0279 22.604C67.0308 22.5729 67.0406 22.5428 67.0565 22.5159C67.0725 22.4891 67.0942 22.4661 67.12 22.4487C67.5912 22.4783 68.0624 22.4783 68.5043 22.4783C68.9462 22.4783 69.3879 22.4783 69.859 22.4487C69.888 22.498 69.9032 22.5541 69.9032 22.6112C69.9032 22.6684 69.888 22.7245 69.859 22.7737L69.6233 22.8033C69.211 22.8623 69.1522 22.9509 69.1522 23.8077V27.027Z" fill="#F5333F"/>
<path d="M74.5123 27.2042C74.5123 28.0608 74.5711 28.12 74.9835 28.2086L75.2485 28.2675C75.2774 28.3168 75.2927 28.3729 75.2927 28.43C75.2927 28.4872 75.2774 28.5433 75.2485 28.5925C74.7485 28.5629 74.3061 28.5629 73.8643 28.5629C73.4224 28.5629 72.9807 28.5629 72.48 28.5925C72.4511 28.5433 72.4358 28.4872 72.4358 28.43C72.4358 28.3729 72.4511 28.3168 72.48 28.2675L72.745 28.2086C73.1574 28.1496 73.2162 28.061 73.2162 27.2042V23.8373C73.2162 22.9808 73.1574 22.9215 72.745 22.8329L72.48 22.774C72.4511 22.7247 72.4358 22.6686 72.4358 22.6115C72.4358 22.5543 72.4511 22.4982 72.48 22.449C72.98 22.4786 73.4224 22.4786 73.8643 22.4786C74.3061 22.4786 74.7478 22.4786 75.2485 22.449C75.2774 22.4982 75.2927 22.5543 75.2927 22.6115C75.2927 22.6686 75.2774 22.7247 75.2485 22.774L74.9835 22.8329C74.5711 22.8919 74.5123 22.9805 74.5123 23.8373V27.2042Z" fill="#F5333F"/>
<path d="M77.8991 24.8708C77.8991 25.1365 77.8991 25.1365 78.1641 25.1365H78.7832C79.2544 25.1365 79.3722 25.0776 79.4605 24.6351L79.5193 24.3987C79.5683 24.3559 79.6311 24.3323 79.696 24.3323C79.761 24.3323 79.8237 24.3559 79.8727 24.3987C79.8432 24.6941 79.8431 25.0195 79.8431 25.3734C79.8431 25.7273 79.8432 26.0528 79.8727 26.3482C79.8432 26.4367 79.6077 26.4367 79.5193 26.3482L79.4605 26.1118C79.3722 25.6688 79.2544 25.6103 78.7832 25.6103H78.1641C77.9284 25.6103 77.8991 25.6103 77.8991 25.9057V26.9986C77.8684 27.3019 77.9192 27.6079 78.0463 27.8848C78.1641 28.0619 78.3408 28.1212 79.0182 28.1212C79.8134 28.1212 80.1372 28.0916 80.6372 27.0578C80.696 26.9692 80.9317 26.9989 80.9905 27.1168C80.9305 27.6243 80.8017 28.1212 80.6077 28.5937C80.1365 28.5641 79.2529 28.5641 78.4872 28.5641H77.3092C76.8675 28.5641 76.4256 28.5641 75.7187 28.5937C75.6898 28.5445 75.6745 28.4884 75.6745 28.4312C75.6745 28.3741 75.6898 28.318 75.7187 28.2687L76.1604 28.2098C76.5727 28.1508 76.6315 28.0916 76.6315 27.235V23.8074C76.6315 22.9803 76.5727 22.9213 76.1604 22.8327L75.9247 22.7737C75.9025 22.7518 75.8854 22.7251 75.8748 22.6958C75.8641 22.6664 75.8601 22.635 75.8631 22.6039C75.866 22.5728 75.8758 22.5427 75.8918 22.5159C75.9077 22.489 75.9295 22.4661 75.9554 22.4487C76.397 22.4783 76.8389 22.4783 77.2806 22.4783H79.2244C79.6373 22.4907 80.0506 22.4808 80.4624 22.4487C80.4624 22.5963 80.5212 23.2463 80.5803 23.8664C80.5508 23.955 80.3446 23.9846 80.227 23.896C80.145 23.6342 80.026 23.3856 79.8736 23.1577C79.7499 23.0482 79.6049 22.9654 79.4478 22.9146C79.2907 22.8637 79.1248 22.846 78.9605 22.8623H78.2232C77.9287 22.8623 77.9287 22.8919 77.9287 23.2167V24.8708H77.8991Z" fill="#F5333F"/>
<path d="M82.0213 23.9848C82.0213 23.069 81.9917 22.9804 81.6089 22.9215L81.3732 22.8919C81.3509 22.87 81.3338 22.8434 81.3231 22.8141C81.3123 22.7848 81.3082 22.7534 81.311 22.7223C81.3139 22.6912 81.3236 22.6611 81.3394 22.6342C81.3553 22.6074 81.3769 22.5843 81.4027 22.5669C82.0801 22.5079 82.8162 22.4783 83.6705 22.4783C84.4362 22.4783 85.1136 22.5965 85.4669 22.8033C85.7116 22.934 85.9155 23.1302 86.0558 23.37C86.1962 23.6098 86.2676 23.8839 86.2621 24.162C86.2621 24.9891 85.7026 25.3435 85.2902 25.5503C85.2019 25.6093 85.2019 25.6389 85.2314 25.7571C85.8505 26.9988 86.2033 27.6769 86.645 28.0609C86.821 28.2082 87.0362 28.3006 87.264 28.3267C87.2829 28.3391 87.2989 28.3555 87.3109 28.3747C87.3229 28.3939 87.3306 28.4155 87.3334 28.438C87.3362 28.4605 87.3341 28.4834 87.3272 28.505C87.3203 28.5266 87.3088 28.5464 87.2935 28.5631C87.0543 28.631 86.8059 28.6609 86.5574 28.6517C85.7033 28.6517 85.1731 28.3563 84.7902 27.6769C84.5196 27.2228 84.2833 26.7489 84.0834 26.2593C84.0487 26.1624 83.9845 26.0789 83.9 26.0206C83.8154 25.9623 83.7148 25.9321 83.6122 25.9343C83.2881 25.9343 83.2881 25.9639 83.2881 26.1411V27.2634C83.2881 28.1199 83.3469 28.1791 83.7593 28.2381L83.995 28.2971C84.024 28.3463 84.0392 28.4024 84.0392 28.4596C84.0392 28.5167 84.024 28.5728 83.995 28.6221C83.5238 28.5925 83.0819 28.5925 82.6403 28.5925C82.1691 28.5925 81.7863 28.5925 81.3151 28.6221C81.2861 28.5728 81.2709 28.5167 81.2709 28.4596C81.2709 28.4024 81.2861 28.3463 81.3151 28.2971L81.5508 28.2381C81.9632 28.1791 82.022 28.0905 82.022 27.2634V23.9848H82.0213ZM83.2877 25.1367C83.2877 25.4617 83.3172 25.4911 83.8472 25.4911C83.9771 25.5 84.1074 25.4809 84.2294 25.4351C84.3513 25.3892 84.462 25.3177 84.5541 25.2253C84.6721 25.0881 84.7617 24.9286 84.8174 24.7562C84.8731 24.5838 84.8938 24.402 84.8783 24.2214C84.8783 23.3943 84.4072 22.8627 83.6707 22.8627C83.2879 22.8627 83.2879 22.8923 83.2879 23.3353L83.2877 25.1367Z" fill="#F5333F"/>
<path d="M21.4416 10.8404C21.4416 11.3419 21.4712 11.3722 21.9416 11.3722H23.1797C24.1221 11.3722 24.3282 11.254 24.5049 10.3679L24.5932 9.92493C24.7111 9.77735 25.1823 9.77735 25.2706 9.95454C25.2411 10.5453 25.2118 11.1657 25.2118 11.8744C25.2118 12.5538 25.2413 13.2035 25.2706 13.7943C25.1823 13.9714 24.7404 13.9714 24.5932 13.8239L24.5049 13.3809C24.3282 12.5244 24.1221 12.3766 23.1797 12.3766H21.9416C21.4416 12.3766 21.4416 12.4062 21.4416 12.9377V15.094C21.4416 15.9212 21.5004 16.5117 21.7362 16.8071C21.9719 17.1321 22.3252 17.2796 23.6211 17.2796C25.182 17.2796 25.8006 17.2206 26.7725 15.1826C26.9196 14.9758 27.3615 15.0644 27.4499 15.2712C27.3485 16.2705 27.09 17.2475 26.6839 18.1658C25.7416 18.1362 24.004 18.1068 22.5314 18.1068H20.2048C19.3507 18.1068 18.4667 18.1364 17.1124 18.1658C16.9653 18.0476 16.9653 17.634 17.1124 17.5449L17.9665 17.4267C18.7617 17.3085 18.8795 17.1903 18.8795 15.5362V8.71379C18.8795 7.0597 18.7617 6.97063 17.9665 6.79393L17.5248 6.70581C17.3481 6.61722 17.3481 6.20436 17.5248 6.08496C18.3788 6.11457 19.2629 6.14394 20.1164 6.14394H23.9156C25.0642 6.14394 26.0951 6.11433 26.3306 6.08496C26.3601 6.38034 26.4777 7.68007 26.5663 8.89097C26.478 9.09776 26.0663 9.12737 25.8889 8.94995C25.6827 8.3291 25.4473 7.76842 25.2116 7.53226C24.8582 7.1779 24.328 6.97111 23.4445 6.97111H22.0011C21.4121 6.97111 21.4121 7.00072 21.4121 7.68007V10.8404H21.4416Z" fill="white"/>
<path d="M29.5112 9.0977C29.5112 7.26643 29.4817 7.08924 28.716 7.00065L28.2448 6.91206C28.0977 6.82347 28.0387 6.29121 28.3037 6.26232C29.6584 6.17373 30.9836 6.11475 32.7798 6.11475C34.5178 6.11475 35.6659 6.32154 36.4316 6.7941C36.8254 7.03104 37.1482 7.37007 37.3661 7.7755C37.584 8.18093 37.6888 8.63777 37.6697 9.09794C37.6697 10.6045 36.4033 11.195 35.8438 11.3426C35.6671 11.3722 35.4904 11.4608 35.4904 11.5493C35.4904 11.6083 35.5788 11.6675 35.7261 11.6969C37.1397 11.9923 38.3473 12.9386 38.3768 14.6801C38.4079 15.3469 38.2202 16.0056 37.8423 16.5551C37.4645 17.1047 36.9174 17.5149 36.2849 17.7228C35.1659 18.1067 33.8109 18.1657 32.7214 18.1657C32.0736 18.1657 31.3962 18.1067 30.866 18.1067C29.9824 18.1067 29.0989 18.1363 28.0682 18.1657C27.921 18.0475 27.921 17.5749 28.0682 17.5449L28.5984 17.4267C29.4232 17.2495 29.5115 17.1313 29.5115 15.5068L29.5112 9.0977ZM32.0145 10.8409C32.0145 11.3134 32.0441 11.3423 32.9569 11.3423C34.5178 11.3423 35.0773 10.338 35.0773 9.27464C35.0773 7.70914 34.1054 6.94119 32.8686 6.94119C32.0145 6.94119 32.0145 7.08877 32.0145 7.88632V10.8401V10.8409ZM32.0145 15.0056C32.0145 16.4233 32.1912 17.3094 33.605 17.3094C34.9302 17.3094 35.6371 16.2757 35.6371 14.8282C35.6371 13.2627 34.7535 12.1697 33.0159 12.1697C32.0145 12.1697 32.0145 12.1993 32.0145 12.9081V15.0056Z" fill="white"/>
<path d="M40.1725 8.74323C40.1725 7.05953 40.0546 6.97094 39.2594 6.79376L38.8177 6.70517C38.7778 6.66308 38.7468 6.61331 38.7266 6.55887C38.7064 6.50443 38.6974 6.44644 38.7001 6.38841C38.7029 6.33039 38.7174 6.27352 38.7426 6.22125C38.7679 6.16899 38.8035 6.1224 38.8473 6.08432C39.7013 6.11393 40.6144 6.1433 41.4684 6.1433C42.352 6.1433 43.2355 6.11369 44.0895 6.08432C44.1611 6.17185 44.2002 6.28155 44.2002 6.39474C44.2002 6.50794 44.1611 6.61764 44.0895 6.70517L43.6479 6.76415C42.8527 6.91172 42.7348 7.05953 42.7348 8.74323V12.9087C42.7348 15.0057 42.9705 17.3392 45.7093 17.3392C48.0064 17.3392 48.7133 15.3307 48.7133 12.8499V10.6641C48.7133 9.21675 48.6545 7.82843 48.4483 7.35587C48.3011 6.9719 47.8888 6.88331 47.4176 6.76511L46.9464 6.67652C46.8816 6.58607 46.8467 6.47749 46.8467 6.36609C46.8467 6.25469 46.8816 6.14611 46.9464 6.05566C47.9183 6.08527 48.6252 6.11464 49.3614 6.11464C50.0387 6.11464 50.6866 6.08504 51.3639 6.05566C51.4288 6.14611 51.4636 6.25469 51.4636 6.36609C51.4636 6.47749 51.4288 6.58607 51.3639 6.67652L51.0399 6.7355C50.5687 6.8537 50.2447 6.94229 50.068 7.32626C49.8618 7.79882 49.803 9.15753 49.803 10.6344V12.7021C49.803 14.3858 49.6263 15.9513 48.6545 17.044C47.8592 17.9005 46.5635 18.3437 45.091 18.3437C43.7362 18.3437 42.4993 18.1369 41.5274 17.3394C40.5851 16.5714 40.2022 15.2424 40.2022 13.2633V8.74323H40.1725Z" fill="white"/>
<path d="M53.7789 13.9713C53.3373 13.9713 53.3077 14.0009 53.1899 14.3257L52.483 16.4227C52.4025 16.6297 52.3625 16.8503 52.3651 17.0725C52.3651 17.1907 52.6008 17.2793 53.1013 17.3679L53.6315 17.4565C53.7494 17.5747 53.7787 17.9882 53.602 18.0773C52.983 18.0477 52.3356 18.0477 51.5699 18.0183C50.9509 18.0183 50.5392 18.0773 49.7145 18.0773C49.5083 17.9591 49.5378 17.6047 49.6557 17.4565L50.1268 17.3975C50.5685 17.3385 50.9221 17.1907 51.2166 16.4817C51.5111 15.7728 51.8644 14.8866 52.3356 13.5871L53.9546 9.186C54.367 8.0637 54.6615 7.41371 54.632 6.91154C55.486 6.70475 56.1634 5.8186 56.1929 5.8186C56.4286 5.8186 56.5462 5.90719 56.6053 6.17297C56.7524 6.70475 56.9586 7.35449 57.4005 8.65422L59.845 15.7135C60.2278 16.8065 60.3752 17.2201 61.0526 17.3086L61.73 17.4268C61.8478 17.5154 61.8771 17.9586 61.7004 18.0477C60.8464 18.0181 59.8745 17.9887 58.9322 17.9887C58.0191 17.9887 57.3417 18.0183 56.5172 18.0477C56.4673 18.0139 56.426 17.969 56.3965 17.9164C56.3669 17.8638 56.3501 17.805 56.3472 17.7447C56.3444 17.6844 56.3556 17.6243 56.3799 17.5691C56.4043 17.5139 56.4412 17.4652 56.4877 17.4268L57.0767 17.3383C57.4891 17.2793 57.5479 17.1315 57.5479 17.0429C57.4704 16.6185 57.3521 16.2027 57.1946 15.8012L56.7234 14.2357C56.6351 13.9403 56.4877 13.9107 55.8693 13.9107H53.7782L53.7789 13.9713ZM55.811 13.0262C56.2234 13.0262 56.311 12.9672 56.1643 12.4944L55.6932 11.0471C55.4282 10.2792 55.1336 9.30397 54.957 8.92047C54.8098 9.33405 54.457 10.3088 54.1913 11.1357L53.7496 12.4944C53.573 12.967 53.6908 13.0262 54.1325 13.0262H55.8113H55.811Z" fill="white"/>
<path d="M73.0398 14.9757C73.0398 16.1572 73.0398 17.2795 73.0693 17.8703C72.9515 18.0771 72.4503 18.2839 72.0091 18.2839C71.9796 18.2839 71.39 17.3681 70.566 16.3048L66.4135 11.1357C65.3828 9.86562 64.7642 9.09767 64.4402 8.8319C64.3518 9.00908 64.3518 9.30446 64.3518 9.98382V13.4692C64.3518 14.9165 64.4107 16.2752 64.6168 16.7774C64.7935 17.1613 65.2059 17.2788 65.6475 17.3681L66.1475 17.4271C66.2126 17.5175 66.2476 17.6261 66.2476 17.7375C66.2476 17.849 66.2126 17.9576 66.1475 18.048C65.1756 18.0183 64.4687 17.989 63.7326 17.989C63.0552 17.989 62.4074 18.0186 61.73 18.048C61.6652 17.9575 61.6303 17.8489 61.6303 17.7375C61.6303 17.6261 61.6652 17.5176 61.73 17.4271L62.0245 17.3681C62.4957 17.2795 62.8785 17.1613 62.9964 16.7774C63.2026 16.3048 63.2614 14.9461 63.2614 13.4692V8.9501C63.2614 7.94575 63.2319 7.67998 63.1435 7.41421C62.9964 7.11883 62.7607 6.88243 62.1128 6.79336L61.6128 6.73438C61.495 6.58681 61.495 6.14361 61.6717 6.11353C62.5257 6.14314 63.4097 6.17251 64.1457 6.17251C64.7647 6.17251 65.2942 6.1429 65.6478 6.11353C65.8244 6.91108 67.0025 8.2994 68.6222 10.2193L70.1244 11.9916C70.9196 12.9367 71.4496 13.5571 71.8624 13.9706C71.9173 13.7086 71.9371 13.4404 71.9212 13.1731V10.6928C71.9212 9.24548 71.8624 7.88677 71.6562 7.3846C71.4796 7.00063 71.0967 6.88314 70.6255 6.79384L70.1544 6.73485C70.0893 6.64449 70.0543 6.53588 70.0543 6.42443C70.0543 6.31298 70.0893 6.20437 70.1544 6.114C71.1262 6.14361 71.8331 6.17298 72.5693 6.17298C73.2467 6.17298 73.8945 6.14337 74.5719 6.114C74.6367 6.20445 74.6716 6.31303 74.6716 6.42443C74.6716 6.53582 74.6367 6.64441 74.5719 6.73485L74.2479 6.79384C73.7767 6.85282 73.4526 7.00063 73.276 7.3846C73.0698 7.85716 73.011 9.21587 73.011 10.6928V14.9757H73.0398Z" fill="white"/>
<path d="M78.4294 13.9713C77.9877 13.9713 77.9582 14.0009 77.8403 14.3257L77.1334 16.4227C77.053 16.6297 77.013 16.8503 77.0156 17.0725C77.0156 17.1907 77.2513 17.2793 77.7518 17.3679L78.282 17.4565C78.3998 17.5747 78.4291 17.9882 78.2525 18.0773C77.6334 18.0477 76.9861 18.0477 76.2204 18.0183C75.6013 18.0183 75.1897 18.0773 74.3649 18.0773C74.1587 17.9591 74.1883 17.6047 74.3061 17.4565L74.7773 17.3975C75.2189 17.3385 75.5725 17.1907 75.867 16.4817C76.1616 15.7728 76.5149 14.8866 76.9861 13.5871L78.6356 9.186C79.0479 8.0637 79.3424 7.41371 79.3129 6.91154C80.167 6.70475 80.8443 5.8186 80.8738 5.8186C81.1096 5.8186 81.2272 5.90719 81.2862 6.17297C81.4334 6.70475 81.6396 7.35449 82.0814 8.65422L84.5264 15.714C84.9093 16.807 85.0566 17.2205 85.734 17.3091L86.4114 17.4273C86.5292 17.5159 86.5585 17.9591 86.3818 18.0482C85.5278 18.0186 84.5559 17.9892 83.6136 17.9892C82.7005 17.9892 82.0231 18.0188 81.1986 18.0482C81.1487 18.0144 81.1074 17.9695 81.0779 17.9169C81.0484 17.8642 81.0315 17.8055 81.0286 17.7452C81.0258 17.6849 81.037 17.6248 81.0614 17.5696C81.0857 17.5144 81.1226 17.4657 81.1691 17.4273L81.7286 17.3387C82.141 17.2798 82.1998 17.1319 82.1998 17.0434C82.1223 16.619 82.0039 16.2031 81.8465 15.8017L81.3753 14.2362C81.2869 13.9408 81.1396 13.9112 80.5212 13.9112H78.4303L78.4294 13.9713ZM80.491 13.0262C80.9034 13.0262 80.991 12.9672 80.8443 12.4944L80.3731 11.0471C80.1374 10.2792 79.8136 9.30397 79.637 8.92047C79.4898 9.33405 79.137 10.3088 78.8713 11.1357L78.4296 12.4944C78.2825 12.967 78.3708 13.0262 78.8125 13.0262H80.4912H80.491Z" fill="white"/>
<path d="M4.86069 2.24485C4.86069 2.24485 9.72013 1.86088 12.2234 2.24485C12.2234 2.24485 12.7234 2.15626 12.2822 1.71307C12.2822 1.71307 10.7508 0 8.63038 0C6.50995 0 4.91974 1.71331 4.83117 1.77253C4.74284 1.86112 4.50713 2.12689 4.86069 2.24485Z" fill="white"/>
<path d="M16.2572 16.0686C16.2677 15.9911 16.2608 15.9122 16.2368 15.8377C16.2129 15.7633 16.1726 15.6952 16.1188 15.6385C16.0651 15.5817 15.9994 15.5379 15.9265 15.51C15.8536 15.4822 15.7754 15.4712 15.6976 15.4778C15.595 15.4895 15.4953 15.5195 15.4031 15.5664H15.3736V15.596C14.7551 16.5543 13.8987 17.3349 12.8885 17.861C11.8783 18.3872 10.7491 18.6408 9.61168 18.5971C8.47425 18.5533 7.36772 18.2137 6.40069 17.6115C5.43367 17.0093 4.6394 16.1653 4.09585 15.1622C3.55229 14.1592 3.27814 13.0317 3.30031 11.8903C3.32247 10.7489 3.64019 9.63291 4.22227 8.65187C4.80436 7.67083 5.63079 6.85846 6.62046 6.2945C7.61013 5.73053 8.72901 5.43437 9.86728 5.43507C10.9524 5.4364 12.0203 5.70677 12.9761 6.22212C13.9318 6.73747 14.7457 7.48181 15.3453 8.38889L15.4336 8.50709H15.5219C15.6175 8.55407 15.725 8.57076 15.8302 8.55494C15.9355 8.53911 16.0334 8.49152 16.111 8.4185C16.2242 8.28718 16.2869 8.11956 16.2876 7.94594V7.88743L16.2581 7.79884C15.5084 6.43449 14.4086 5.29597 13.0727 4.50124C11.7367 3.70651 10.2132 3.28446 8.65992 3.27881C6.36314 3.2863 4.16276 4.20561 2.53994 5.83572C0.917121 7.46582 0.00391497 9.67408 1.25584e-05 11.9776C-0.00388986 14.2811 0.901829 16.4925 2.51911 18.1281C4.1364 19.7637 6.33365 20.6905 8.63039 20.7059C10.1849 20.7066 11.7109 20.2872 13.048 19.492C14.3851 18.6967 15.4838 17.5549 16.2288 16.1865L16.2584 16.1276L16.2572 16.0686Z" fill="white"/>
<path d="M94.0938 3.16675H92.9033V29.9111H94.0938V3.16675Z" fill="white"/>
<defs>
<linearGradient id="paint0_linear_74_5171" x1="105.658" y1="20.6695" x2="122.701" y2="-4.22296" gradientUnits="userSpaceOnUse">
<stop stop-color="#F9E08E"/>
<stop offset="0.251" stop-color="#BC8038"/>
<stop offset="0.496" stop-color="#FADF86"/>
<stop offset="0.719" stop-color="#C8893B"/>
<stop offset="0.749" stop-color="#CD923E"/>
<stop offset="1" stop-color="#EAC950"/>
</linearGradient>
</defs>
</svg>
