<svg width="24" height="24" viewBox="0 0 24 24" fill="none" xmlns="http://www.w3.org/2000/svg">
<path d="M21.4937 2.8133H18.2097V0.767265C18.2097 0.563773 18.1289 0.368612 17.985 0.224722C17.8411 0.0808321 17.646 0 17.4425 0C17.239 0 17.0438 0.0808321 16.8999 0.224722C16.756 0.368612 16.6752 0.563773 16.6752 0.767265V2.8133H7.26341V0.767265C7.26341 0.563773 7.18258 0.368612 7.03869 0.224722C6.8948 0.0808321 6.69964 0 6.49615 0C6.29266 0 6.0975 0.0808321 5.95361 0.224722C5.80972 0.368612 5.72888 0.563773 5.72888 0.767265V2.8133H2.47569C1.81712 2.82401 1.18898 3.09249 0.726117 3.56109C0.263256 4.02969 0.00259046 4.66107 0 5.31971V20.9924C-5.49999e-06 21.6581 0.263736 22.2966 0.733485 22.7683C1.20323 23.24 1.84073 23.5063 2.50641 23.509H21.4937C22.1593 23.5063 22.7968 23.24 23.2665 22.7683C23.7363 22.2966 24 21.6581 24 20.9924V5.31971C23.9973 4.65581 23.7324 4.01987 23.263 3.55041C22.7935 3.08095 22.1576 2.816 21.4937 2.8133V2.8133ZM22.4655 21.0026C22.4658 21.2653 22.3651 21.5181 22.1842 21.7085C22.0033 21.899 21.756 22.0125 21.4937 22.0256H2.50641C2.24405 22.0125 1.99675 21.899 1.81582 21.7085C1.6349 21.5181 1.5342 21.2653 1.53453 21.0026V5.31971C1.5342 5.05703 1.6349 4.80428 1.81582 4.61383C1.99675 4.42338 2.24405 4.30983 2.50641 4.2967H5.75961V6.62921C5.75961 6.8327 5.84044 7.0278 5.98433 7.17169C6.12822 7.31558 6.32338 7.39647 6.52687 7.39647C6.73036 7.39647 6.92552 7.31558 7.06941 7.17169C7.2133 7.0278 7.29413 6.8327 7.29413 6.62921V4.2967H16.7059V6.62921C16.7059 6.8327 16.7868 7.0278 16.9306 7.17169C17.0745 7.31558 17.2697 7.39647 17.4732 7.39647C17.6767 7.39647 17.8718 7.31558 18.0157 7.17169C18.1596 7.0278 18.2405 6.8327 18.2405 6.62921V4.2967H21.4937C21.756 4.30983 22.0033 4.42338 22.1842 4.61383C22.3651 4.80428 22.4658 5.05703 22.4655 5.31971V21.0026Z" fill="#00263E"/>
<path d="M6.88484 12.399H4.8388C4.63531 12.399 4.44015 12.4799 4.29626 12.6238C4.15237 12.7677 4.07153 12.9628 4.07153 13.1663C4.07153 13.3698 4.15237 13.565 4.29626 13.7089C4.44015 13.8527 4.63531 13.9336 4.8388 13.9336H6.88484C7.08833 13.9336 7.28349 13.8527 7.42738 13.7089C7.57127 13.565 7.6521 13.3698 7.6521 13.1663C7.6521 12.9628 7.57127 12.7677 7.42738 12.6238C7.28349 12.4799 7.08833 12.399 6.88484 12.399Z" fill="#00263E"/>
<path d="M13.023 12.399H10.977C10.7735 12.399 10.5783 12.4799 10.4344 12.6238C10.2905 12.7677 10.2097 12.9628 10.2097 13.1663C10.2097 13.3698 10.2905 13.565 10.4344 13.7089C10.5783 13.8527 10.7735 13.9336 10.977 13.9336H13.023C13.2265 13.9336 13.4217 13.8527 13.5656 13.7089C13.7095 13.565 13.7903 13.3698 13.7903 13.1663C13.7903 12.9628 13.7095 12.7677 13.5656 12.6238C13.4217 12.4799 13.2265 12.399 13.023 12.399Z" fill="#00263E"/>
<path d="M19.1612 12.399H17.1152C16.9117 12.399 16.7165 12.4799 16.5726 12.6238C16.4287 12.7677 16.3479 12.9628 16.3479 13.1663C16.3479 13.3698 16.4287 13.565 16.5726 13.7089C16.7165 13.8527 16.9117 13.9336 17.1152 13.9336H19.1612C19.3647 13.9336 19.5599 13.8527 19.7037 13.7089C19.8476 13.565 19.9285 13.3698 19.9285 13.1663C19.9285 12.9628 19.8476 12.7677 19.7037 12.6238C19.5599 12.4799 19.3647 12.399 19.1612 12.399Z" fill="#00263E"/>
</svg>
