<svg width="17" height="20" viewBox="0 0 17 20" fill="none" xmlns="http://www.w3.org/2000/svg">
<path d="M16.0337 2.42725H12.2753V1.41259C12.2517 1.01717 12.0711 0.647016 11.773 0.382794C11.4748 0.118572 11.0833 -0.0183105 10.6837 0.00197103H6.64199C6.24236 -0.0183105 5.85082 0.118572 5.55269 0.382794C5.25455 0.647016 5.07399 1.01717 5.05033 1.41259V2.42725H1.29199C1.12623 2.42725 0.967262 2.49244 0.850052 2.60847C0.732841 2.72449 0.666992 2.88186 0.666992 3.04595C0.666992 3.21004 0.732841 3.3674 0.850052 3.48343C0.967262 3.59946 1.12623 3.66464 1.29199 3.66464H16.0337C16.1994 3.66464 16.3584 3.59946 16.4756 3.48343C16.5928 3.3674 16.6587 3.21004 16.6587 3.04595C16.6587 2.88186 16.5928 2.72449 16.4756 2.60847C16.3584 2.49244 16.1994 2.42725 16.0337 2.42725ZM6.30033 1.41259C6.30033 1.35485 6.43366 1.23936 6.64199 1.23936H10.6837C10.892 1.23936 11.0253 1.35485 11.0253 1.41259V2.42725H6.30033V1.41259Z" fill="#00263E"/>
<path d="M15.7752 4.62158C15.6094 4.62158 15.4505 4.68677 15.3333 4.80279C15.216 4.91882 15.1502 5.07619 15.1502 5.24028V17.5647C15.1225 17.9062 14.9601 18.2232 14.698 18.447C14.436 18.6709 14.0955 18.7836 13.7502 18.7608H3.6002C3.25486 18.7836 2.91435 18.6709 2.65234 18.447C2.39034 18.2232 2.22791 17.9062 2.2002 17.5647V5.24028C2.2002 5.07619 2.13435 4.91882 2.01714 4.80279C1.89993 4.68677 1.74096 4.62158 1.5752 4.62158C1.40944 4.62158 1.25046 4.68677 1.13325 4.80279C1.01604 4.91882 0.950195 5.07619 0.950195 5.24028V17.5647C0.976232 18.235 1.26989 18.8678 1.76672 19.324C2.26356 19.7803 2.92296 20.0227 3.6002 19.9982H13.7502C14.4274 20.0227 15.0868 19.7803 15.5837 19.324C16.0805 18.8678 16.3742 18.235 16.4002 17.5647V5.24028C16.398 5.07685 16.3315 4.92072 16.2148 4.80516C16.098 4.68959 15.9403 4.62372 15.7752 4.62158Z" fill="#00263E"/>
<path d="M11.4922 15.2551V7.73173C11.4922 7.56764 11.4263 7.41028 11.3091 7.29425C11.1919 7.17822 11.0329 7.11304 10.8672 7.11304C10.7014 7.11304 10.5425 7.17822 10.4252 7.29425C10.308 7.41028 10.2422 7.56764 10.2422 7.73173V15.2551C10.2422 15.4191 10.308 15.5765 10.4252 15.6925C10.5425 15.8086 10.7014 15.8738 10.8672 15.8738C11.0329 15.8738 11.1919 15.8086 11.3091 15.6925C11.4263 15.5765 11.4922 15.4191 11.4922 15.2551Z" fill="#00263E"/>
<path d="M7.08398 15.2551V7.73173C7.08398 7.56764 7.01814 7.41028 6.90093 7.29425C6.78372 7.17822 6.62474 7.11304 6.45898 7.11304C6.29322 7.11304 6.13425 7.17822 6.01704 7.29425C5.89983 7.41028 5.83398 7.56764 5.83398 7.73173V15.2551C5.83398 15.4191 5.89983 15.5765 6.01704 15.6925C6.13425 15.8086 6.29322 15.8738 6.45898 15.8738C6.62474 15.8738 6.78372 15.8086 6.90093 15.6925C7.01814 15.5765 7.08398 15.4191 7.08398 15.2551Z" fill="#00263E"/>
</svg>
