<svg width="20" height="20" viewBox="0 0 20 20" fill="none" xmlns="http://www.w3.org/2000/svg">
<path d="M18.7983 1.21665C17.1674 -0.40555 14.4206 -0.40555 12.7897 1.21665L0.858369 13.1697C0.772532 13.2551 0.686695 13.4258 0.686695 13.5112L0 19.317C0 19.4877 0.0858369 19.7439 0.171674 19.8292C0.257511 19.9146 0.429185 20 0.600858 20H0.686695L6.5236 19.317C6.69528 19.317 6.78112 19.2316 6.86695 19.1462L18.7983 7.19317C19.5708 6.42476 20 5.31483 20 4.20491C20 3.09498 19.5708 2.07044 18.7983 1.21665ZM6.09442 18.0363L1.28755 18.6339L1.88841 13.8527L10.8155 5.0587L15.0215 9.24226L6.09442 18.0363ZM17.8541 6.33938L15.8798 8.30309L11.6738 4.11953L13.6481 2.15582C14.7639 1.04589 16.7382 1.04589 17.8541 2.15582C18.4549 2.75347 18.7124 3.4365 18.7124 4.20491C18.7124 4.97332 18.4549 5.74173 17.8541 6.33938Z" fill="#B3BEC5"/>
</svg>
