<svg width="24" height="25" viewBox="0 0 24 25" fill="none" xmlns="http://www.w3.org/2000/svg">
<line x1="14.3214" y1="10.7739" x2="18.0595" y2="10.7739" stroke="#0E81B4" stroke-width="1.5" stroke-linecap="round"/>
<line x1="9.08334" y1="14.9644" x2="18.0595" y2="14.9644" stroke="#0E81B4" stroke-width="1.5" stroke-linecap="round"/>
<line x1="9.08334" y1="19.1548" x2="18.0595" y2="19.1548" stroke="#0E81B4" stroke-width="1.5" stroke-linecap="round"/>
<line x1="6.98792" y1="6.58325" x2="9.67839" y2="6.58325" stroke="#0E81B4" stroke-width="1.5" stroke-linecap="round"/>
<line x1="6.88492" y1="6.58325" x2="6.88492" y2="3.89278" stroke="#0E81B4" stroke-width="1.5" stroke-linecap="round"/>
<circle cx="7.28571" cy="6.28571" r="5.53571" stroke="#0E81B4" stroke-width="1.5"/>
<path fill-rule="evenodd" clip-rule="evenodd" d="M5.64264 13.4343C5.11906 13.3144 4.61684 13.1386 4.14264 12.9133V21.0952C4.14264 22.7521 5.48579 24.0952 7.14264 24.0952H19.9998C21.6566 24.0952 22.9998 22.7521 22.9998 21.0952V6.14282C22.9998 4.48597 21.6566 3.14282 19.9998 3.14282H13.9131C14.1384 3.61703 14.3143 4.11924 14.4341 4.64282H19.9998C20.8282 4.64282 21.4998 5.3144 21.4998 6.14282V21.0952C21.4998 21.9236 20.8282 22.5952 19.9998 22.5952H7.14264C6.31421 22.5952 5.64264 21.9236 5.64264 21.0952V13.4343Z" fill="#0E81B4"/>
</svg>
