<svg width="35" height="35" viewBox="0 0 35 35" fill="none" xmlns="http://www.w3.org/2000/svg">
<path d="M18.0053 0.214111C12.4197 0.214111 7.52965 2.70875 4.83515 6.44062L4.83533 6.44C4.83533 6.44 2.45708 9.50828 2.03641 13.4943L2.03626 13.4958C0.858855 19.6529 1.3857 29.2875 13.6607 34.7857C13.6607 34.7857 10.0002 29.1232 10.6904 24.4409C12.9907 25.4716 15.4846 25.9994 18.0053 25.9888C26.5004 25.9888 33.387 20.219 33.387 13.1015C33.387 5.98398 26.5004 0.214111 18.0053 0.214111Z" fill="white"/>
<path d="M11.999 12.9501C13.3888 11.6136 19.6859 5.87283 24.0835 7.11857C24.1823 7.14706 24.2724 7.19975 24.3456 7.27186C24.4189 7.34398 24.473 7.43324 24.503 7.53155L26.3542 13.5172C26.3872 13.6233 26.391 13.7363 26.3653 13.8444C26.3396 13.9525 26.2853 14.0517 26.2081 14.1316C25.3365 15.0311 21.9469 17.6014 12.8647 15.737C12.7569 15.7148 12.6569 15.6645 12.5749 15.5911C12.4929 15.5178 12.4318 15.4239 12.3979 15.3192L11.8387 13.5884C11.8029 13.4776 11.7989 13.3591 11.8273 13.2462C11.8556 13.1334 11.9151 13.0308 11.999 12.9501Z" fill="#00263E"/>
<path d="M25.3668 7.72842L26.9001 12.8064C26.9133 12.8501 26.938 12.8896 26.9716 12.9205C27.0052 12.9515 27.0465 12.9729 27.0912 12.9824C27.1359 12.992 27.1824 12.9894 27.2257 12.9749C27.269 12.9604 27.3077 12.9346 27.3377 12.9C27.8781 12.2755 28.9992 10.8793 29.5822 9.42765C29.6046 9.37164 29.6064 9.30949 29.5873 9.25227C29.5681 9.19505 29.5293 9.14647 29.4777 9.11518C28.9026 8.76582 27.0739 7.70163 25.6673 7.40192C25.6235 7.39257 25.578 7.3948 25.5353 7.40839C25.4926 7.42198 25.4542 7.44647 25.4239 7.47943C25.3936 7.51239 25.3724 7.55269 25.3623 7.59636C25.3523 7.64002 25.3539 7.68554 25.3668 7.72842Z" fill="#00263E"/>
<path d="M15.057 16.7039C15.68 16.7788 18.13 17.0573 19.5472 16.987C19.5863 16.9852 19.625 16.996 19.6574 17.018C19.6899 17.0399 19.7144 17.0717 19.7273 17.1087C19.7401 17.1457 19.7407 17.1859 19.729 17.2232C19.7172 17.2606 19.6936 17.2931 19.6619 17.316C18.7187 18.0017 16.5744 19.3249 14.1464 19.258C14.1169 19.257 14.0881 19.2488 14.0624 19.2342C14.0368 19.2196 14.0151 19.1989 13.9993 19.174C13.9834 19.1491 13.9739 19.1207 13.9714 19.0913C13.969 19.0618 13.9738 19.0323 13.9854 19.0051C14.1967 18.5064 14.6775 17.3608 14.8636 16.8253C14.8771 16.786 14.9037 16.7526 14.9389 16.7305C14.9741 16.7084 15.0158 16.699 15.057 16.7039Z" fill="#00263E"/>
<path d="M13.2648 11.002C13.7599 10.6165 15.7148 9.11381 16.9651 8.44276C16.9995 8.42414 17.0271 8.39488 17.0435 8.35935C17.06 8.32382 17.0646 8.28392 17.0565 8.24559C17.0485 8.20726 17.0283 8.17255 16.9989 8.14664C16.9695 8.12072 16.9326 8.10499 16.8936 8.10178C15.7318 8.00102 13.2123 7.97397 11.167 9.28401C11.1422 9.30009 11.1217 9.32197 11.1073 9.34773C11.0929 9.3735 11.085 9.40239 11.0843 9.43191C11.0836 9.46142 11.09 9.49067 11.1031 9.51712C11.1162 9.54357 11.1356 9.56643 11.1595 9.58372C11.5978 9.90186 12.6008 10.6352 13.0365 10.9978C13.0684 11.0245 13.1084 11.0395 13.1499 11.0402C13.1915 11.041 13.232 11.0275 13.2648 11.002Z" fill="#00263E"/>
<path d="M21.5044 13.3736C22.4583 13.3736 23.2315 12.6004 23.2315 11.6465C23.2315 10.6927 22.4583 9.91943 21.5044 9.91943C20.5506 9.91943 19.7773 10.6927 19.7773 11.6465C19.7773 12.6004 20.5506 13.3736 21.5044 13.3736Z" fill="white"/>
<path d="M7.02534 30.5134C7.02534 30.5134 1.18506 22.8636 11.3047 15.8195L10.7425 13.918C10.7425 13.918 3.92953 16.4507 1.66438 19.2603C1.66438 19.2603 0.910516 25.5633 7.02534 30.5134Z" fill="#00263E"/>
</svg>
