<svg width="24" height="13" viewBox="0 0 24 13" fill="none" xmlns="http://www.w3.org/2000/svg">
<path d="M11.5913 12.3613C11.4928 12.3617 11.3951 12.3425 11.3041 12.3047C11.2131 12.267 11.1305 12.2114 11.0613 12.1413L0.201289 1.26129C0.0688087 1.11911 -0.00331136 0.931051 0.000116852 0.73675C0.00354507 0.542449 0.0821863 0.357073 0.219599 0.21966C0.357012 0.0822473 0.542388 0.00354507 0.736689 0.000116852C0.93099 -0.00331136 1.11905 0.0688087 1.26123 0.201289L11.5913 10.5313L21.9313 0.261286C22.0734 0.128806 22.2615 0.0566862 22.4558 0.0601144C22.6501 0.0635426 22.8355 0.142245 22.9729 0.279658C23.1103 0.417071 23.1889 0.602447 23.1924 0.796748C23.1958 0.991049 23.1237 1.17911 22.9912 1.32128L12.1212 12.1813C12.0497 12.2456 11.9659 12.2948 11.8748 12.3257C11.7836 12.3567 11.6872 12.3687 11.5913 12.3613Z" fill="#99A8B2"/>
</svg>
