<svg width="17" height="17" viewBox="0 0 17 17" fill="none" xmlns="http://www.w3.org/2000/svg">
<path d="M9.58406 8.51234L16.7783 1.30769C17.0739 1.01161 17.0739 0.518142 16.7783 0.222061C16.4826 -0.0740203 15.9899 -0.0740203 15.6942 0.222061L8.5 7.4267L1.3058 0.222061C1.01014 -0.0740203 0.517391 -0.0740203 0.221739 0.222061C-0.073913 0.518142 -0.073913 1.01161 0.221739 1.30769L7.41594 8.51234L0.221739 15.717C-0.073913 16.0131 -0.073913 16.5065 0.221739 16.8026C0.32029 16.9013 0.517391 17 0.714493 17C0.911594 17 1.1087 16.9013 1.20725 16.8026L8.40145 9.59797L15.5957 16.8026C15.6942 16.9013 15.8913 17 16.0884 17C16.2855 17 16.4826 16.9013 16.5812 16.8026C16.8768 16.5065 16.8768 16.0131 16.5812 15.717L9.58406 8.51234Z" fill="#00263E"/>
</svg>
